<?xml version="1.0" encoding="UTF-8"?>
<svg xmlns="http://www.w3.org/2000/svg" xmlns:xlink="http://www.w3.org/1999/xlink" width="900" height="1550">


<defs>

    <path id="A" d="m 37.633197,882.03033 0,0.64698 -5.3833,0 0,-0.64698 1.855468,-0.32959 5.578614,-15.52734 2.319335,0 5.798339,15.52734 2.075196,0.32959 0,0.64698 -6.921387,0 0,-0.64698 2.197266,-0.32959 -1.623536,-4.72412 -6.445311,0 -1.647949,4.72412 2.197265,0.32959 z m 2.624512,-14.09912 -2.807617,7.94678 5.700682,0 -2.893065,-7.94678 z"/>
    <path id="B" d="m 44.67055,870.1712 q 0,-0.72021 -0.219726,-1.25732 -0.20752,-0.53711 -0.683594,-0.89112 -0.476074,-0.36621 -1.23291,-0.53711 -0.756836,-0.1831 -1.855469,-0.1831 l -2.526856,0 0,6.18896 2.67334,0 q 1.135255,0 1.879883,-0.23193 0.74463,-0.24414 1.171875,-0.67139 0.439453,-0.43945 0.610352,-1.0498 0.183105,-0.61035 0.183105,-1.36719 z m 1.23291,7.73926 q 0,-0.85449 -0.280761,-1.47705 -0.268555,-0.62256 -0.854493,-1.02539 -0.57373,-0.41504 -1.489257,-0.61035 -0.915528,-0.20752 -2.197266,-0.20752 l -2.929688,0 0,6.88476 q 0.561524,0.0244 1.171875,0.0366 0.524903,0.0244 1.159668,0.0366 0.634766,0 1.257325,0 1.147461,0 1.940918,-0.25634 0.793457,-0.25635 1.281738,-0.72022 0.500488,-0.47607 0.720215,-1.14746 0.219726,-0.67139 0.219726,-1.51367 z m -12.207031,4.66309 0,-0.64698 2.099609,-0.32959 0,-14.42871 -2.099609,-0.31738 0,-0.64697 7.48291,0 q 1.721192,0 2.868653,0.26855 1.14746,0.25635 1.843261,0.75684 0.695801,0.50049 0.98877,1.2207 0.292969,0.70801 0.292969,1.59912 0,0.76904 -0.256348,1.40381 -0.244141,0.63477 -0.695801,1.12305 -0.439453,0.47607 -1.062012,0.80566 -0.622558,0.31738 -1.35498,0.47608 1.062012,0.10986 1.916504,0.42724 0.866699,0.31738 1.464844,0.83008 0.598144,0.50049 0.915527,1.19629 0.32959,0.6958 0.32959,1.55029 0,1.06201 -0.366211,1.95313 -0.354004,0.8789 -1.123047,1.51367 -0.769043,0.62256 -1.977539,0.97656 -1.208496,0.3418 -2.917481,0.3418 -1.367187,0 -2.722168,-0.0366 -1.35498,-0.0366 -2.502441,-0.0366 l -3.125,0 z"/>
    <path id="C" d="m 42.351215,882.82379 q -2.001953,0 -3.576659,-0.56153 -1.5625,-0.56152 -2.648927,-1.62353 -1.074219,-1.062 -1.635742,-2.58789 -0.561523,-1.53809 -0.561523,-3.4668 0,-2.19727 0.561523,-3.80859 0.57373,-1.61132 1.647949,-2.66114 1.086426,-1.06201 2.661133,-1.5747 1.574707,-0.5127 3.601074,-0.5127 0.842285,0 1.586914,0.061 0.744629,0.0488 1.416016,0.13427 0.683594,0.0855 1.293945,0.19533 0.610352,0.10986 1.184082,0.23193 l 0.07324,3.57665 -0.805664,0 -0.366211,-2.12401 q -0.854492,-0.52491 -1.989746,-0.80567 -1.123046,-0.29297 -2.294921,-0.29297 -1.428223,0 -2.55127,0.39063 -1.11084,0.39062 -1.879883,1.28174 -0.769043,0.8789 -1.184082,2.33154 -0.402832,1.44043 -0.402832,3.55225 0,1.85546 0.402832,3.23486 0.402832,1.36719 1.159668,2.28271 0.756836,0.90332 1.843262,1.35497 1.098633,0.45166 2.490234,0.45166 0.756836,0 1.44043,-0.0976 0.695801,-0.0977 1.281738,-0.26856 0.598145,-0.17089 1.062012,-0.39062 0.476074,-0.23193 0.793457,-0.47608 l 0.45166,-2.4414 0.793457,0 -0.07324,3.84521 q -0.512695,0.14649 -1.171875,0.29297 -0.65918,0.13428 -1.403809,0.24414 -0.744629,0.10987 -1.5625,0.1709 -0.817871,0.061 -1.635742,0.061 z"/>

    <path id="n0" d="m 33.199218,39.00293 c 0,-1.01562 0.103516,-1.832025 0.310547,-2.449219 0.210938,-0.621086 0.521484,-1.099602 0.931641,-1.435547 0.41406,-0.335929 0.933591,-0.503898 1.558594,-0.503906 0.460933,8e-6 0.86523,0.09376 1.21289,0.28125 0.347652,0.183602 0.634761,0.45118 0.861328,0.802734 0.226557,0.347664 0.404292,0.773445 0.533204,1.277344 0.1289,0.500006 0.193353,1.175786 0.193359,2.027344 -6e-6,1.007815 -0.103522,1.822268 -0.310547,2.443359 -0.207037,0.617189 -0.517583,1.095704 -0.931641,1.435547 -0.410159,0.335938 -0.92969,0.503906 -1.558593,0.503906 -0.828128,0 -1.478518,-0.296875 -1.951172,-0.890625 -0.566407,-0.714842 -0.84961,-1.878903 -0.84961,-3.492187 m 1.083985,0 c -2e-6,1.410159 0.164061,2.349611 0.492187,2.818359 0.332029,0.464845 0.740232,0.697266 1.22461,0.697266 0.484372,0 0.890622,-0.234374 1.21875,-0.703125 0.332026,-0.468748 0.498042,-1.406247 0.498047,-2.8125 -5e-6,-1.414057 -0.166021,-2.353509 -0.498047,-2.81836 -0.328128,-0.464836 -0.738285,-0.697257 -1.230469,-0.697265 -0.484378,8e-6 -0.871096,0.205085 -1.160156,0.615234 -0.363283,0.523444 -0.544924,1.49024 -0.544922,2.900391"/>
    <path id="n1" d="m 36.91409,43.3125 -1.054687,0 0,-6.720703 c -0.253909,0.242194 -0.587894,0.484381 -1.001953,0.726563 -0.410158,0.242193 -0.779299,0.423833 -1.107422,0.544922 l 0,-1.019532 c 0.589842,-0.277337 1.105466,-0.613274 1.546875,-1.007812 0.441403,-0.394524 0.753903,-0.777336 0.9375,-1.148438 l 0.679687,0 0,8.625"/>
    <path id="n2" d="m 38.839335,42.298828 0,1.013672 -5.677735,0 c -0.0078,-0.253906 0.0332,-0.498046 0.123047,-0.732422 0.144531,-0.386718 0.374999,-0.767576 0.691406,-1.142578 0.320311,-0.374998 0.781248,-0.808591 1.382813,-1.300781 0.93359,-0.765621 1.564449,-1.371089 1.892578,-1.816407 0.32812,-0.449213 0.492182,-0.873041 0.492187,-1.271484 -5e-6,-0.417962 -0.150395,-0.769524 -0.451171,-1.054687 -0.29688,-0.289055 -0.685551,-0.433586 -1.166016,-0.433594 -0.507815,8e-6 -0.914065,0.152351 -1.21875,0.457031 -0.304689,0.304695 -0.458986,0.726569 -0.462891,1.265625 l -1.083984,-0.111328 c 0.07422,-0.808587 0.353515,-1.423821 0.837891,-1.845703 0.484373,-0.425773 1.134763,-0.638663 1.951171,-0.638672 0.824215,9e-6 1.476558,0.228524 1.957032,0.685547 0.480463,0.457039 0.720697,1.023444 0.720703,1.699219 -6e-6,0.343756 -0.07032,0.681646 -0.210938,1.013671 -0.14063,0.332037 -0.375005,0.681646 -0.703125,1.048829 -0.324223,0.367191 -0.865238,0.871097 -1.623047,1.511718 -0.632815,0.531253 -1.039065,0.89258 -1.21875,1.083985 -0.179689,0.187501 -0.328127,0.376954 -0.445312,0.568359 l 4.212891,0"/>
    <path id="n3" d="m 33.1875,40.968749 1.054688,-0.140625 c 0.121092,0.597658 0.32617,1.029298 0.615234,1.294922 0.292966,0.261719 0.648435,0.392579 1.066406,0.392578 0.49609,10e-7 0.914059,-0.171874 1.253906,-0.515625 0.343746,-0.343749 0.51562,-0.76953 0.515625,-1.277343 -5e-6,-0.484373 -0.158208,-0.88281 -0.474609,-1.195313 -0.31641,-0.316402 -0.718754,-0.474605 -1.207031,-0.474609 -0.199222,3e-6 -0.447269,0.03907 -0.744141,0.117187 l 0.117188,-0.925781 c 0.07031,0.0078 0.12695,0.01172 0.169922,0.01172 0.449215,6e-6 0.853511,-0.117182 1.21289,-0.351563 0.359371,-0.234369 0.539058,-0.595697 0.539063,-1.083984 -5e-6,-0.386712 -0.130864,-0.707024 -0.392578,-0.960937 -0.261723,-0.253899 -0.599613,-0.380852 -1.013672,-0.38086 -0.410159,8e-6 -0.751956,0.128914 -1.025391,0.386719 -0.273439,0.257819 -0.44922,0.644538 -0.527344,1.160156 l -1.054687,-0.1875 c 0.128905,-0.707024 0.421874,-1.253899 0.878906,-1.640625 0.457029,-0.390616 1.025388,-0.585929 1.705078,-0.585937 0.468747,8e-6 0.900387,0.101571 1.294922,0.304687 0.394526,0.199227 0.695307,0.472664 0.902344,0.820313 0.210932,0.347663 0.3164,0.716803 0.316406,1.107422 -6e-6,0.371099 -0.09962,0.70899 -0.298828,1.013671 -0.199224,0.304694 -0.494146,0.546881 -0.884766,0.726563 0.507808,0.117193 0.902339,0.361332 1.183594,0.732422 0.281244,0.367191 0.421869,0.828128 0.421875,1.382812 -6e-6,0.750002 -0.273443,1.38672 -0.820312,1.910157 -0.54688,0.519531 -1.238286,0.779296 -2.074219,0.779296 -0.753909,0 -1.380861,-0.224609 -1.88086,-0.673828 C 33.541015,42.265625 33.257812,41.683595 33.1875,40.96875"/>
    <path id="n4" d="m 36.75586,43.294922 0,-2.056641 -3.726563,0 0,-0.966796 3.919922,-5.566407 0.861328,0 0,5.566407 1.160156,0 0,0.966796 -1.160156,0 0,2.056641 -1.054687,0 m 0,-3.023437 0,-3.873047 -2.689453,3.873047 2.689453,0"/>
    <path id="n5" d="m 33.152344,40.913085 1.107422,-0.09375 c 0.08203,0.539066 0.271482,0.945315 0.568359,1.21875 0.300779,0.269534 0.662107,0.404298 1.083985,0.404297 0.507808,10e-7 0.937495,-0.191405 1.289062,-0.574218 0.351558,-0.38281 0.527339,-0.890623 0.527344,-1.523438 -5e-6,-0.601559 -0.169927,-1.076168 -0.509766,-1.423828 -0.335941,-0.347651 -0.777347,-0.521479 -1.324218,-0.521484 -0.339847,4e-6 -0.646487,0.07813 -0.919922,0.234375 -0.27344,0.152349 -0.488283,0.351566 -0.644532,0.597656 l -0.990234,-0.128906 0.832031,-4.41211 4.271485,0 0,1.007813 -3.427735,0 -0.46289,2.308593 c 0.515622,-0.359369 1.056637,-0.539056 1.623047,-0.539062 0.749995,6e-6 1.382807,0.259771 1.898437,0.779297 0.515619,0.519535 0.773431,1.187504 0.773438,2.003906 -7e-6,0.777347 -0.226569,1.44922 -0.679688,2.015625 -0.550786,0.695313 -1.302739,1.042969 -2.255859,1.042969 -0.781253,0 -1.419924,-0.21875 -1.916016,-0.65625 -0.492188,-0.437499 -0.773438,-1.017577 -0.84375,-1.740235"/>
    <path id="n6" d="m 38.683593,36.752931 -1.048828,0.08203 c -0.09376,-0.414056 -0.226567,-0.714837 -0.398437,-0.902344 -0.28516,-0.300774 -0.636722,-0.451164 -1.054688,-0.451172 -0.33594,8e-6 -0.630861,0.09376 -0.884765,0.28125 -0.332033,0.242195 -0.593752,0.59571 -0.785157,1.060547 -0.191407,0.46485 -0.291016,1.126958 -0.298828,1.986328 0.253905,-0.386714 0.564452,-0.673823 0.931641,-0.861328 0.367185,-0.187495 0.75195,-0.281244 1.154297,-0.28125 0.703121,6e-6 1.300776,0.259771 1.792968,0.779297 0.496088,0.515629 0.744135,1.183597 0.744141,2.003906 -6e-6,0.539065 -0.117193,1.041018 -0.351562,1.50586 -0.230475,0.460938 -0.548834,0.814453 -0.955079,1.060546 -0.406253,0.246094 -0.86719,0.369141 -1.382812,0.369141 -0.878908,0 -1.595704,-0.322265 -2.150391,-0.966797 -0.554687,-0.648436 -0.832031,-1.714841 -0.832031,-3.199219 0,-1.66015 0.306641,-2.86718 0.919922,-3.621093 0.535155,-0.656242 1.255857,-0.984367 2.162109,-0.984375 0.675777,8e-6 1.228511,0.189461 1.658203,0.568359 0.433588,0.378914 0.693354,0.902351 0.779297,1.570313 m -4.30664,3.703125 c -10e-7,0.363283 0.07617,0.710939 0.228515,1.042968 0.156249,0.332033 0.373046,0.585939 0.650391,0.761719 0.277342,0.171876 0.568357,0.257813 0.873047,0.257813 0.445309,0 0.828121,-0.179687 1.148437,-0.539063 0.320308,-0.359373 0.480464,-0.847654 0.480469,-1.464844 -5e-6,-0.593746 -0.158208,-1.060543 -0.474609,-1.40039 -0.31641,-0.343746 -0.714847,-0.515621 -1.195313,-0.515625 -0.476565,4e-6 -0.880861,0.171879 -1.21289,0.515625 -0.332033,0.339847 -0.498048,0.787112 -0.498047,1.341797"/>
    <path id="n7" d="m 33.219727,35.774414 0,-1.013672 5.560547,0 0,0.820312 c -0.546881,0.582038 -1.089849,1.355475 -1.628906,2.320313 -0.535161,0.964849 -0.949223,1.957034 -1.242188,2.976562 -0.21094,0.718753 -0.345706,1.50586 -0.404297,2.361328 l -1.083984,0 c 0.01172,-0.67578 0.144529,-1.492185 0.398437,-2.449218 0.253904,-0.957027 0.617185,-1.878902 1.089844,-2.765625 0.476559,-0.890619 0.982418,-1.640619 1.517578,-2.25 l -4.207031,0"/>

        <marker id="arrowend-ff5500" viewBox="0 0 13 10" refX="2" refY="5" markerWidth="3.5" markerHeight="3.5" orient="auto">
            <path d="M 0 0  C 0 0, 3 5, 0 10   L 0 10  L 13 5" fill="#ff5500"/>
        </marker>
        <marker id="arrowend-00438a" viewBox="0 0 13 10" refX="2" refY="5" markerWidth="3.5" markerHeight="3.5" orient="auto">
            <path d="M 0 0  C 0 0, 3 5, 0 10   L 0 10  L 13 5" fill="#00438a"/>
        </marker>
        <marker id="arrowend-ff0000" viewBox="0 0 13 10" refX="2" refY="5" markerWidth="3.5" markerHeight="3.5" orient="auto">
            <path d="M 0 0  C 0 0, 3 5, 0 10   L 0 10  L 13 5" fill="#ff0000"/>
        </marker>
        <marker id="arrowend-7b2e13" viewBox="0 0 13 10" refX="2" refY="5" markerWidth="3.5" markerHeight="3.5" orient="auto">
            <path d="M 0 0  C 0 0, 3 5, 0 10   L 0 10  L 13 5" fill="#7b2e13"/>
        </marker>
        <marker id="arrowend-ba1000" viewBox="0 0 13 10" refX="2" refY="5" markerWidth="3.5" markerHeight="3.5" orient="auto">
            <path d="M 0 0  C 0 0, 3 5, 0 10   L 0 10  L 13 5" fill="#ba1000"/>
        </marker>
        <marker id="arrowend-da691e" viewBox="0 0 13 10" refX="2" refY="5" markerWidth="3.5" markerHeight="3.5" orient="auto">
            <path d="M 0 0  C 0 0, 3 5, 0 10   L 0 10  L 13 5" fill="#da691e"/>
        </marker>
        <marker id="arrowend-e23287" viewBox="0 0 13 10" refX="2" refY="5" markerWidth="3.5" markerHeight="3.5" orient="auto">
            <path d="M 0 0  C 0 0, 3 5, 0 10   L 0 10  L 13 5" fill="#e23287"/>
        </marker>
        <marker id="arrowstart-ff0000" viewBox="0 0 13 10" refX="11" refY="5" markerWidth="3.5" markerHeight="3.5" orient="auto">
            <path d="M 13 0  C 13 0, 10 5, 13 10   L 13 10  L 0 5" fill="#ff0000"/>
        </marker>
        <marker id="arrowstart-00438a" viewBox="0 0 13 10" refX="11" refY="5" markerWidth="3.5" markerHeight="3.5" orient="auto">
            <path d="M 13 0  C 13 0, 10 5, 13 10   L 13 10  L 0 5" fill="#00438a"/>
        </marker>
        <marker id="arrowstart-da691e" viewBox="0 0 13 10" refX="11" refY="5" markerWidth="3.5" markerHeight="3.5" orient="auto">
            <path d="M 13 0  C 13 0, 10 5, 13 10   L 13 10  L 0 5" fill="#da691e"/>
        </marker>
        <marker id="arrowstart-7b2e13" viewBox="0 0 13 10" refX="11" refY="5" markerWidth="3.5" markerHeight="3.5" orient="auto">
            <path d="M 13 0  C 13 0, 10 5, 13 10   L 13 10  L 0 5" fill="#7b2e13"/>
        </marker>

</defs>

    <g transform="scale(10, 10)">

        <rect width="90" height="155" fill="white" stroke="none"/>

        <!--SIGNED PERMUTATION MATRIX (3x3)-->

<g transform="translate(5, 5) scale(6)">

    <!--background-->
    <rect width="3" height="3" stroke="#888" stroke-width="0.18"/>
    <rect width="3" height="3" stroke="none" fill="#eee"/>

    <!--entry rectangles-->
                <rect x="2" y="0" width="1" height="1" fill="#090"/>
                <rect x="1" y="1" width="1" height="1" fill="#090"/>
                <rect x="0" y="2" width="1" height="1" fill="#e00"/>

    <!--entry signs (+, -, 0)-->
            <g transform="translate(0, 0) scale(.2) translate(1, 1)">
                    <circle cx="1.5" cy="1.5" r="1.2" stroke="black" stroke-width="1" fill="none" opacity=".05"/>
            </g>
            <g transform="translate(1, 0) scale(.2) translate(1, 1)">
                    <circle cx="1.5" cy="1.5" r="1.2" stroke="black" stroke-width="1" fill="none" opacity=".05"/>
            </g>
            <g transform="translate(2, 0) scale(.2) translate(1, 1)">
                    <rect y="1" width="3" height="1" fill="white"/>
                        <rect x="1" width="1" height="3" fill="white"/>
            </g>
            <g transform="translate(0, 1) scale(.2) translate(1, 1)">
                    <circle cx="1.5" cy="1.5" r="1.2" stroke="black" stroke-width="1" fill="none" opacity=".05"/>
            </g>
            <g transform="translate(1, 1) scale(.2) translate(1, 1)">
                    <rect y="1" width="3" height="1" fill="white"/>
                        <rect x="1" width="1" height="3" fill="white"/>
            </g>
            <g transform="translate(2, 1) scale(.2) translate(1, 1)">
                    <circle cx="1.5" cy="1.5" r="1.2" stroke="black" stroke-width="1" fill="none" opacity=".05"/>
            </g>
            <g transform="translate(0, 2) scale(.2) translate(1, 1)">
                    <rect y="1" width="3" height="1" fill="white"/>
            </g>
            <g transform="translate(1, 2) scale(.2) translate(1, 1)">
                    <circle cx="1.5" cy="1.5" r="1.2" stroke="black" stroke-width="1" fill="none" opacity=".05"/>
            </g>
            <g transform="translate(2, 2) scale(.2) translate(1, 1)">
                    <circle cx="1.5" cy="1.5" r="1.2" stroke="black" stroke-width="1" fill="none" opacity=".05"/>
            </g>

    <!--lines-->
    <rect x="0" y="0" width="3" height="3" stroke="#fff" stroke-width=".1" fill="none"/>
    <path stroke-dasharray=".03, .97" d="M -.015, 1.5  h4 M 1.5, -.015 v 4" stroke="#fff" stroke-width="3"/>

</g>

        <!--PERMUTED LETTERS WITH NEGATORS-->
<g transform="scale(.2) translate(23, -4)">
    <!--letters-->
    <g transform="translate(98, -830)">
        <use xlink:href="#C"/>
        <use xlink:href="#B" transform="translate(0, 30)"/>
        <use xlink:href="#A" transform="translate(0, 60)"/>
    </g>
    <!--negators-->
            <path d="m 117, 103 h 10 v 4" fill="none" stroke="black" stroke-width="1.4"/>
</g>
        <!--HORIZONTAL MATRIX (3x8)-->

<g transform="translate(37, 5)">

    <g transform="scale(6)">

        <!--background-->
        <rect width="8" height="3" stroke="#888" stroke-width="0.18"/>
        <rect width="8" height="3" stroke="none" fill="#eee"/>

        <!--entries-->
                    <rect x="4" y="0" width="1" height="1" fill="#888"/>
                    <rect x="5" y="0" width="1" height="1" fill="#888"/>
                    <rect x="6" y="0" width="1" height="1" fill="#888"/>
                    <rect x="7" y="0" width="1" height="1" fill="#888"/>
                    <rect x="2" y="1" width="1" height="1" fill="#888"/>
                    <rect x="3" y="1" width="1" height="1" fill="#888"/>
                    <rect x="6" y="1" width="1" height="1" fill="#888"/>
                    <rect x="7" y="1" width="1" height="1" fill="#888"/>
                    <rect x="0" y="2" width="1" height="1" fill="#888"/>
                    <rect x="2" y="2" width="1" height="1" fill="#888"/>
                    <rect x="4" y="2" width="1" height="1" fill="#888"/>
                    <rect x="6" y="2" width="1" height="1" fill="#888"/>

        <!--lines-->
        <rect x="0" y="0" width="8" height="3" stroke="#fff" stroke-width=".1" fill="none"/>
        <path stroke-dasharray=".03, .97" d="M 4, -.015  v3" stroke="#fff" stroke-width="8"/>
        <g stroke="#fff" stroke-width="3">
            <path stroke-dasharray=".03, .97" d="M -.015, 1.5  h 8"/>
            <path stroke-dasharray=".1, 3.9" d="M -.05, 1.5 h 8"/>
        </g>
    </g>

    <!--numbers (1, 2, 4)-->
    <g transform="translate(-11.4, -12.6) scale(.4)" opacity=".1">
                    <use x="60.0" y="0.0" xlink:href="#n1"/>
                    <use x="75.0" y="0.0" xlink:href="#n1"/>
                    <use x="90.0" y="0.0" xlink:href="#n1"/>
                    <use x="105.0" y="0.0" xlink:href="#n1"/>
                    <use x="30.0" y="15.0" xlink:href="#n2"/>
                    <use x="45.0" y="15.0" xlink:href="#n2"/>
                    <use x="90.0" y="15.0" xlink:href="#n2"/>
                    <use x="105.0" y="15.0" xlink:href="#n2"/>
                    <use x="0.0" y="30.0" xlink:href="#n4"/>
                    <use x="30.0" y="30.0" xlink:href="#n4"/>
                    <use x="60.0" y="30.0" xlink:href="#n4"/>
                    <use x="90.0" y="30.0" xlink:href="#n4"/>
    </g>

</g>
        <!--HORIZONTAL PERMUTATION-->
<g transform="translate(10.65, 12.2)">

    <!--top row-->
    <g transform="translate(20.4, 5.25) scale(.25)" opacity=".4">
            <use x="0" xlink:href="#n0"/>
            <use x="24" xlink:href="#n1"/>
            <use x="48" xlink:href="#n2"/>
            <use x="72" xlink:href="#n3"/>
            <use x="96" xlink:href="#n4"/>
            <use x="120" xlink:href="#n5"/>
            <use x="144" xlink:href="#n6"/>
            <use x="168" xlink:href="#n7"/>
    </g>

    <!--bottom row-->
    <g transform="translate(15, 4.2) scale(.4)">
            <use x="0.0" xlink:href="#n4"/>
            <use x="15.0" xlink:href="#n0"/>
            <use x="30.0" xlink:href="#n6"/>
            <use x="45.0" xlink:href="#n2"/>
            <use x="60.0" xlink:href="#n5"/>
            <use x="75.0" xlink:href="#n1"/>
            <use x="90.0" xlink:href="#n7"/>
            <use x="105.0" xlink:href="#n3"/>
    </g>

</g>

        <!--PERMUTATION MATRIX (8x8)-->

<g transform="translate(37, 37) scale(6)">

    <!--background-->
    <rect width="8" height="8" stroke="#888" stroke-width="0.18"/>
    <rect width="8" height="8" stroke="none" fill="#eee"/>

    <!--entries-->
        <rect x="0" y="4" width="1" height="1" fill="#ff5500" fill-opacity="0.7"/>
        <rect x="1" y="0" width="1" height="1" fill="#ff5500" fill-opacity="0.7"/>
        <rect x="2" y="6" width="1" height="1" fill="#e23287" fill-opacity="0.7"/>
        <rect x="3" y="2" width="1" height="1" fill="#e23287" fill-opacity="0.7"/>
        <rect x="4" y="5" width="1" height="1" fill="#ff5500" fill-opacity="0.7"/>
        <rect x="5" y="1" width="1" height="1" fill="#ff5500" fill-opacity="0.7"/>
        <rect x="6" y="7" width="1" height="1" fill="#e23287" fill-opacity="0.7"/>
        <rect x="7" y="3" width="1" height="1" fill="#e23287" fill-opacity="0.7"/>

    <!--lines-->
    <rect x="0" y="0" width="8" height="8" stroke="#fff" stroke-width=".1" fill="none"/>
    <g stroke="#fff" stroke-width="8">
        <path stroke-dasharray=".03, .97" d="M -.015, 4  h 9  M 4, -.015  v 9"/>
        <path stroke-dasharray=".1, 3.9" d="M -.05, 4  h 9  M 4, -.05  v 9"/>
    </g>

    <g transform="translate(.5, .5)">

        <!--arrows-->
                <path stroke="#ff5500" stroke-width=".075" fill="none" d="M 0 0  L 0 3.5  C 0 3.5, 0 4, 0.5 4  L 3.62 4" marker-end="url(#arrowend-ff5500)"/>
                <path stroke="#ff5500" stroke-width=".075" fill="none" d="M 1 1  L 1 0.5  C 1 0.5, 1 0, 0.5 0  L 0.38 0" marker-end="url(#arrowend-ff5500)"/>
                <path stroke="#e23287" stroke-width=".075" fill="none" d="M 2 2  L 2 5.5  C 2 5.5, 2 6, 2.5 6  L 5.62 6" marker-end="url(#arrowend-e23287)"/>
                <path stroke="#e23287" stroke-width=".075" fill="none" d="M 3 3  L 3 2.5  C 3 2.5, 3 2, 2.5 2  L 2.38 2" marker-end="url(#arrowend-e23287)"/>
                <path stroke="#ff5500" stroke-width=".075" fill="none" d="M 4 4  L 4 4.5  C 4 4.5, 4 5, 4.5 5  L 4.62 5" marker-end="url(#arrowend-ff5500)"/>
                <path stroke="#ff5500" stroke-width=".075" fill="none" d="M 5 5  L 5 1.5  C 5 1.5, 5 1, 4.5 1  L 1.38 1" marker-end="url(#arrowend-ff5500)"/>
                <path stroke="#e23287" stroke-width=".075" fill="none" d="M 6 6  L 6 6.5  C 6 6.5, 6 7, 6.5 7  L 6.62 7" marker-end="url(#arrowend-e23287)"/>
                <path stroke="#e23287" stroke-width=".075" fill="none" d="M 7 7  L 7 3.5  C 7 3.5, 7 3, 6.5 3  L 3.38 3" marker-end="url(#arrowend-e23287)"/>

        <!--black circles-->
            <circle cx="0" cy="0" r=".16"/>
            <circle cx="1" cy="1" r=".16"/>
            <circle cx="2" cy="2" r=".16"/>
            <circle cx="3" cy="3" r=".16"/>
            <circle cx="4" cy="4" r=".16"/>
            <circle cx="5" cy="5" r=".16"/>
            <circle cx="6" cy="6" r=".16"/>
            <circle cx="7" cy="7" r=".16"/>
        <!--white numbers-->
            <g transform="translate(-.9, -.975) scale(.025)" fill="white">
                <use x="0" y="0" xlink:href="#n0"/>
            </g>
            <g transform="translate(-.9, -.975) scale(.025)" fill="white">
                <use x="40" y="40" xlink:href="#n1"/>
            </g>
            <g transform="translate(-.9, -.975) scale(.025)" fill="white">
                <use x="80" y="80" xlink:href="#n2"/>
            </g>
            <g transform="translate(-.9, -.975) scale(.025)" fill="white">
                <use x="120" y="120" xlink:href="#n3"/>
            </g>
            <g transform="translate(-.9, -.975) scale(.025)" fill="white">
                <use x="160" y="160" xlink:href="#n4"/>
            </g>
            <g transform="translate(-.9, -.975) scale(.025)" fill="white">
                <use x="200" y="200" xlink:href="#n5"/>
            </g>
            <g transform="translate(-.9, -.975) scale(.025)" fill="white">
                <use x="240" y="240" xlink:href="#n6"/>
            </g>
            <g transform="translate(-.9, -.975) scale(.025)" fill="white">
                <use x="280" y="280" xlink:href="#n7"/>
            </g>
        
    </g>

</g>
        <!--CUBE WITH ARROWS-->

<g transform="translate(35.5, 93) scale(18, 18)">

    <!--edges-->
    <g style="stroke: gray; stroke-width:.015px;">
            <line x1="0" y1="3" x2="2" y2="3"/>
            <line x1="0.6" y1="2.2" x2="2.6" y2="2.2"/>
            <line x1="0" y1="1" x2="2" y2="1"/>
            <line x1="0.6" y1="0.2" x2="2.6" y2="0.2"/>
            <line x1="0" y1="3" x2="0.6" y2="2.2"/>
            <line x1="2" y1="3" x2="2.6" y2="2.2"/>
            <line x1="0" y1="1" x2="0.6" y2="0.2"/>
            <line x1="2" y1="1" x2="2.6" y2="0.2"/>
            <line x1="0" y1="3" x2="0" y2="1"/>
            <line x1="2" y1="3" x2="2" y2="1"/>
            <line x1="0.6" y1="2.2" x2="0.6" y2="0.2"/>
            <line x1="2.6" y1="2.2" x2="2.6" y2="0.2"/>
    </g>

    <!--arrows-->
    <g stroke-width=".08">
                <g opacity=".7">
                        <line x1="0" y1="3" x2="0.0" y2="1.35" stroke="#ff5500" marker-end="url(#arrowend-ff5500)"/>
                </g>
                <g opacity=".7">
                        <line x1="2" y1="3" x2="0.35" y2="3.0" stroke="#ff5500" marker-end="url(#arrowend-ff5500)"/>
                </g>
                <g opacity=".7">
                        <line x1="0.6" y1="2.2" x2="0.6" y2="0.55" stroke="#e23287" marker-end="url(#arrowend-e23287)"/>
                </g>
                <g opacity=".7">
                        <line x1="2.6" y1="2.2" x2="0.95" y2="2.2" stroke="#e23287" marker-end="url(#arrowend-e23287)"/>
                </g>
                <g opacity=".7">
                        <line x1="0" y1="1" x2="1.65" y2="1.0" stroke="#ff5500" marker-end="url(#arrowend-ff5500)"/>
                </g>
                <g opacity=".7">
                        <line x1="2" y1="1" x2="2.0" y2="2.65" stroke="#ff5500" marker-end="url(#arrowend-ff5500)"/>
                </g>
                <g opacity=".7">
                        <line x1="0.6" y1="0.2" x2="2.25" y2="0.2" stroke="#e23287" marker-end="url(#arrowend-e23287)"/>
                </g>
                <g opacity=".7">
                        <line x1="2.6" y1="0.2" x2="2.6" y2="1.85" stroke="#e23287" marker-end="url(#arrowend-e23287)"/>
                </g>
    </g>

    <!--vertices-->
    <g style="fill: black;">
            <circle cx="0" cy="3" r=".12"/>
            <circle cx="2" cy="3" r=".12"/>
            <circle cx="0.6" cy="2.2" r=".12"/>
            <circle cx="2.6" cy="2.2" r=".12"/>
            <circle cx="0" cy="1" r=".12"/>
            <circle cx="2" cy="1" r=".12"/>
            <circle cx="0.6" cy="0.2" r=".12"/>
            <circle cx="2.6" cy="0.2" r=".12"/>
    </g>

</g>

<!--numbers-->
<g transform="translate(22.9, 79.35) scale(.35)" fill="white">
        <g transform="translate(0.0, 154.29)">
            <use xlink:href="#n0"/>
        </g>
        <g transform="translate(102.86, 154.29)">
            <use xlink:href="#n1"/>
        </g>
        <g transform="translate(30.857999999999997, 113.14600000000002)">
            <use xlink:href="#n2"/>
        </g>
        <g transform="translate(133.71800000000002, 113.14600000000002)">
            <use xlink:href="#n3"/>
        </g>
        <g transform="translate(0.0, 51.43)">
            <use xlink:href="#n4"/>
        </g>
        <g transform="translate(102.86, 51.43)">
            <use xlink:href="#n5"/>
        </g>
        <g transform="translate(30.857999999999997, 10.286000000000001)">
            <use xlink:href="#n6"/>
        </g>
        <g transform="translate(133.71800000000002, 10.286000000000001)">
            <use xlink:href="#n7"/>
        </g>
</g>
        <!--GRAY CUBE WITH NUMBERS-->

<g transform="translate(8.5, 125)">

    <!--edges-->
    <g stroke="black" stroke-width=".25">
            <line x1="0.0" y1="16.5" x2="11.0" y2="16.5"/>
            <line x1="5.5" y1="11.0" x2="16.5" y2="11.0"/>
            <line x1="0.0" y1="5.5" x2="11.0" y2="5.5"/>
            <line x1="5.5" y1="0.0" x2="16.5" y2="0.0"/>
            <line x1="0.0" y1="16.5" x2="5.5" y2="11.0"/>
            <line x1="11.0" y1="16.5" x2="16.5" y2="11.0"/>
            <line x1="0.0" y1="5.5" x2="5.5" y2="0.0"/>
            <line x1="11.0" y1="5.5" x2="16.5" y2="0.0"/>
            <line x1="0.0" y1="16.5" x2="0.0" y2="5.5"/>
            <line x1="11.0" y1="16.5" x2="11.0" y2="5.5"/>
            <line x1="5.5" y1="11.0" x2="5.5" y2="0.0"/>
            <line x1="16.5" y1="11.0" x2="16.5" y2="0.0"/>
    </g>

    <!--vertices-->
        <circle cx="0.0" cy="16.5" r="2.3" stroke="black" stroke-width=".25" fill="#888"/>
        <circle cx="11.0" cy="16.5" r="2.3" stroke="black" stroke-width=".25" fill="#ddd"/>
        <circle cx="5.5" cy="11.0" r="2.3" stroke="black" stroke-width=".25" fill="#ddd"/>
        <circle cx="16.5" cy="11.0" r="2.3" stroke="black" stroke-width=".25" fill="#888"/>
        <circle cx="0.0" cy="5.5" r="2.3" stroke="black" stroke-width=".25" fill="#ddd"/>
        <circle cx="11.0" cy="5.5" r="2.3" stroke="black" stroke-width=".25" fill="#888"/>
        <circle cx="5.5" cy="0.0" r="2.3" stroke="black" stroke-width=".25" fill="#888"/>
        <circle cx="16.5" cy="0.0" r="2.3" stroke="black" stroke-width=".25" fill="#ddd"/>

    <!--numbers-->
    <g transform="translate(-9, -9.75) scale(.25)">
        <use x="0.0" y="66.0" xlink:href="#n1"/>
        <use x="44.0" y="66.0" xlink:href="#n5"/>
        <use x="22.0" y="44.0" xlink:href="#n3"/>
        <use x="66.0" y="44.0" xlink:href="#n7"/>
        <use x="0.0" y="22.0" xlink:href="#n0"/>
        <use x="44.0" y="22.0" xlink:href="#n4"/>
        <use x="22.0" y="0.0" xlink:href="#n2"/>
        <use x="66.0" y="0.0" xlink:href="#n6"/>
    </g>

</g>

        <!--SIDE OF THE JF LETTER COMPOUND-->

<g transform="translate(4.3, 90) scale(.55)">

    <g transform="rotate(90, 22.5, 22.5)">


            <rect width="45" height="45" fill="white" stroke="#ddd" stroke-width=".3"/>
            <path d="M 26 3 L 26 27 A 6 6 0 0 1 20 33 A 6 6 0 0 1 15.761719 31.242188 L 9.4023438 37.601562 A 15.000001 15 0 0 0 20 42 A 15 15 0 0 0 35 27 L 35 3 L 26 3 z " fill="#aaa" stroke="black" stroke-width=".7"/>


    </g>

</g>
    </g>

    <!--NUMBERS IN COLORED CIRCLES (UNSCALED)-->

<g transform="scale(10, 10) translate(20, 61)">

    <!--gray rectancles around circle with permutation ID-->
        <g fill="black" opacity=".2">
                <rect x="-2.5" y="-7.5" width="5" height="15"/>
                <rect x="-7.5" y="-2.5" width="15" height="5"/>
        </g>

    <!--circle for row number-->
    <circle cx="-11" cy="0" r="2.3" stroke="black" stroke-width=".25" fill="#888"/>
    <!--circle for col number-->
    <circle cx="0" cy="-11" r="2.3" stroke="black" stroke-width="0.25" fill="#33d42a"/>
    <!--circle for permutation ID-->
    <circle cx="0" cy="0" r="3.42" stroke="black" stroke-width="0.285" fill="#ef2500"/>

</g>

<!--row number-->
<g style="text-anchor: middle; font-family: sans-serif; font-size: 29px; font-weight: normal;">
    <text x="90" y="620.5">4</text>
</g>
<!--col number-->
<g style="text-anchor: middle; font-family: sans-serif; font-size: 29px; font-weight: normal">
    <text x="200.1" y="510.5">5</text>
</g>
<!--permutation ID-->
<g style="text-anchor: middle; font-family: sans-serif; font-size: 33px; font-weight: normal">
    <text x="199.5" y="622.5">9'</text>
</g>

</svg>