<?xml version="1.0" encoding="UTF-8"?>
<svg xmlns="http://www.w3.org/2000/svg" width="370" height="470" viewBox="-35 -35 370 470">

    <g transform="scale(50, 50)">

        <path fill="white" d="m0,0h6v8H0"/>
        <path fill="red" d="M0,0h1v1h-1M3,0h2v1h-2M1,7h2v1h-2M5,7h1v1h-1"/>
        <path fill="black" opacity="0.2" d="M1,0h2v1h-2M5,0h1v1h-1M0,1h1v2h-1M3,1h2v2h-2M1,3h2v1h-2M5,3h1v1h-1M0,4h1v1h-1M3,4h2v1h-2M1,5h2v2h-2M5,5h1v2h-1M0,7h1v1h-1M3,7h2v1h-2"/>

        <g stroke="black" stroke-width="6">
            <path stroke-dasharray=".03, .97" d="M3,0v9"/>
            <path stroke-dasharray=".1, 3.9" d="M3,-.05v9"/>
        </g>

        <g stroke="black" stroke-width="8">
            <path stroke-dasharray=".03, .97" d="M0,4h7"/>
            <path stroke-dasharray=".05, 1.95" d="M-.025,4h9"/>
        </g>

        <rect x="0" y="0" width="6" height="8" stroke-width=".1" fill="none" stroke="black"/>

        <path transform="translate(-1.7, -1.7) scale(0.028)" opacity="0.3" d="M 79.714844 71.597656 C 78.154784 71.597656 76.939939 72.14746 76.068359 73.246094 C 75.013666 74.5791 74.486328 76.760742 74.486328 79.792969 C 74.486328 82.883789 74.966308 85.033694 75.925781 86.242188 C 76.885255 87.443361 78.147457 88.044922 79.714844 88.044922 C 81.274897 88.044922 82.491695 87.495118 83.363281 86.396484 C 84.417968 85.063478 84.945312 82.873045 84.945312 79.826172 C 84.945312 76.771972 84.420414 74.585938 83.373047 73.267578 C 82.49414 72.154298 81.274897 71.597656 79.714844 71.597656 z M 185.7832 71.617188 C 184.50878 71.617188 183.44482 71.982424 182.58789 72.714844 C 181.73096 73.439944 181.18115 74.465329 180.93945 75.791016 L 182.91602 76.142578 C 183.0625 75.175778 183.39356 74.45215 183.90625 73.96875 C 184.41895 73.485357 185.05909 73.242188 185.82812 73.242188 C 186.60449 73.242188 187.23779 73.480958 187.72852 73.957031 C 188.21924 74.433105 188.46484 75.032713 188.46484 75.757812 C 188.46484 76.673339 188.12695 77.351562 187.45312 77.791016 C 186.7793 78.230469 186.02197 78.451172 185.17969 78.451172 C 185.09912 78.451172 184.99317 78.442401 184.86133 78.427734 L 184.64062 80.164062 C 185.19727 80.017583 185.66358 79.945312 186.03711 79.945312 C 186.95264 79.945312 187.70751 80.240724 188.30078 80.833984 C 188.89404 81.419924 189.18945 82.167972 189.18945 83.076172 C 189.18945 84.028319 188.86719 84.82617 188.22266 85.470703 C 187.58545 86.115236 186.80127 86.4375 185.87109 86.4375 C 185.0874 86.4375 184.42237 86.191899 183.87305 85.701172 C 183.33106 85.203125 182.9458 84.394044 182.71875 83.273438 L 180.74219 83.537109 C 180.87403 84.877436 181.40381 85.96826 182.33398 86.810547 C 183.27148 87.652834 184.44775 88.074219 185.86133 88.074219 C 187.42871 88.074219 188.72461 87.587401 189.75 86.613281 C 190.77539 85.631835 191.28906 84.437497 191.28906 83.03125 C 191.28906 81.99121 191.02539 81.127933 190.49805 80.439453 C 189.97071 79.743653 189.2295 79.286133 188.27734 79.066406 C 189.00977 78.729493 189.56397 78.274412 189.9375 77.703125 C 190.31103 77.131832 190.49805 76.498534 190.49805 75.802734 C 190.49805 75.070314 190.2998 74.378416 189.9043 73.726562 C 189.51611 73.074703 188.95264 72.561033 188.21289 72.1875 C 187.47315 71.80664 186.66211 71.617188 185.7832 71.617188 z M 116.84961 71.638672 C 116.50538 72.334472 115.91944 73.051269 115.0918 73.791016 C 114.26416 74.530762 113.29737 75.161621 112.19141 75.681641 L 112.19141 77.59375 C 112.80664 77.366697 113.49853 77.026366 114.26758 76.572266 C 115.04394 76.118166 115.67041 75.663091 116.14648 75.208984 L 116.14648 87.810547 L 118.12305 87.810547 L 118.12305 71.638672 L 116.84961 71.638672 z M 150.87109 71.638672 C 149.34033 71.638672 148.12109 72.037598 147.21289 72.835938 C 146.30468 73.626951 145.78174 74.780762 145.64258 76.296875 L 147.67383 76.505859 C 147.68115 75.495119 147.97168 74.704099 148.54297 74.132812 C 149.11426 73.561519 149.87598 73.275391 150.82812 73.275391 C 151.72901 73.275391 152.45703 73.545897 153.01367 74.087891 C 153.57764 74.622557 153.85938 75.282713 153.85938 76.066406 C 153.85938 76.81348 153.55274 77.606939 152.9375 78.449219 C 152.32227 79.284185 151.13916 80.419922 149.38867 81.855469 C 148.26075 82.778315 147.39551 83.591795 146.79492 84.294922 C 146.20166 84.998049 145.77099 85.712407 145.5 86.4375 C 145.33153 86.876953 145.25486 87.334467 145.26953 87.810547 L 155.91406 87.810547 L 155.91406 85.910156 L 148.01562 85.910156 C 148.23535 85.55127 148.5127 85.19531 148.84961 84.84375 C 149.18652 84.484863 149.94824 83.808593 151.13477 82.8125 C 152.55566 81.611327 153.56982 80.665042 154.17773 79.976562 C 154.79297 79.288089 155.23242 78.632326 155.49609 78.009766 C 155.75977 77.387206 155.89258 76.753902 155.89258 76.109375 C 155.89258 74.842282 155.4419 73.780761 154.54102 72.923828 C 153.64014 72.066895 152.41651 71.638672 150.87109 71.638672 z M 253.46289 71.644531 L 251.90234 79.916016 L 253.75781 80.158203 C 254.05078 79.696776 254.4541 79.322756 254.9668 79.037109 C 255.47949 78.744143 256.05419 78.597656 256.69141 78.597656 C 257.71679 78.597656 258.54589 78.924319 259.17578 79.576172 C 259.81299 80.228032 260.13086 81.118167 260.13086 82.246094 C 260.13086 83.43262 259.80176 84.383789 259.14258 85.101562 C 258.4834 85.819336 257.67676 86.179688 256.72461 86.179688 C 255.9336 86.179688 255.25733 85.925295 254.69336 85.419922 C 254.13672 84.907229 253.78076 84.145512 253.62695 83.134766 L 251.55078 83.310547 C 251.68262 84.665527 252.20997 85.753912 253.13281 86.574219 C 254.06299 87.394532 255.25977 87.804688 256.72461 87.804688 C 258.51172 87.804688 259.92236 87.153316 260.95508 85.849609 C 261.80468 84.787596 262.22852 83.527832 262.22852 82.070312 C 262.22852 80.539553 261.74609 79.28662 260.7793 78.3125 C 259.8125 77.338373 258.625 76.851562 257.21875 76.851562 C 256.15674 76.851562 255.14257 77.187495 254.17578 77.861328 L 255.04492 73.533203 L 261.4707 73.533203 L 261.4707 71.644531 L 253.46289 71.644531 z M 223.22656 71.792969 L 215.87695 82.230469 L 215.87695 84.042969 L 222.86523 84.042969 L 222.86523 87.898438 L 224.8418 87.898438 L 224.8418 84.042969 L 227.01758 84.042969 L 227.01758 82.230469 L 224.8418 82.230469 L 224.8418 71.792969 L 223.22656 71.792969 z M 79.714844 74.158203 C 80.088377 74.158203 80.419431 74.277831 80.705078 74.519531 C 80.998045 74.753905 81.239261 75.227047 81.429688 75.9375 C 81.620121 76.64062 81.714844 77.936519 81.714844 79.826172 C 81.714844 81.715819 81.608891 83.056643 81.396484 83.847656 C 81.235358 84.46289 81.007817 84.891113 80.714844 85.132812 C 80.421877 85.367193 80.088377 85.484375 79.714844 85.484375 C 79.341304 85.484375 79.00781 85.367193 78.714844 85.132812 C 78.429197 84.898439 78.19238 84.429689 78.001953 83.726562 C 77.81152 83.016116 77.716797 81.715819 77.716797 79.826172 C 77.716797 77.936519 77.82275 76.593262 78.035156 75.794922 C 78.19629 75.179689 78.421877 74.753905 78.714844 74.519531 C 79.00781 74.277831 79.341304 74.158203 79.714844 74.158203 z M 222.86523 74.966797 L 222.86523 82.230469 L 217.82227 82.230469 L 222.86523 74.966797 z M 71.005859 106.93359 C 69.555666 106.93359 68.347659 107.30322 67.380859 108.04297 C 66.414066 108.78272 65.839357 110.00391 65.65625 111.70312 L 68.732422 112.00977 C 68.791015 111.10889 69.011718 110.46435 69.392578 110.07617 C 69.773438 109.68799 70.285161 109.49414 70.929688 109.49414 C 71.581547 109.49414 72.090825 109.68115 72.457031 110.05469 C 72.830571 110.4209 73.017578 110.94824 73.017578 111.63672 C 73.017578 112.25927 72.805666 112.88818 72.380859 113.52539 C 72.065919 113.98682 71.211913 114.86572 69.820312 116.16211 C 68.091793 117.76612 66.93359 119.05518 66.347656 120.0293 C 65.761716 120.9961 65.410155 122.02149 65.292969 123.10547 L 76.115234 123.10547 L 76.115234 120.23828 L 69.984375 120.23828 C 70.145508 119.95996 70.354981 119.67383 70.611328 119.38086 C 70.875001 119.08789 71.49463 118.49512 72.46875 117.60156 C 73.44287 116.70801 74.116694 116.02295 74.490234 115.54688 C 75.054194 114.8291 75.464356 114.14404 75.720703 113.49219 C 75.984376 112.83301 76.115234 112.14112 76.115234 111.41602 C 76.115234 110.1416 75.662106 109.07568 74.753906 108.21875 C 73.8457 107.36182 72.595213 106.93359 71.005859 106.93359 z M 83.300781 106.93359 C 82.414548 106.93359 81.612305 107.10254 80.894531 107.43945 C 80.184085 107.76904 79.627443 108.22656 79.224609 108.8125 C 78.829103 109.39111 78.531738 110.16846 78.333984 111.14258 L 81.179688 111.625 C 81.260254 110.92187 81.487795 110.38769 81.861328 110.02148 C 82.234861 109.65527 82.685544 109.47266 83.212891 109.47266 C 83.747557 109.47266 84.17578 109.63281 84.498047 109.95508 C 84.820314 110.27734 84.980469 110.70997 84.980469 111.25195 C 84.980469 111.88916 84.761719 112.40088 84.322266 112.78906 C 83.882812 113.16995 83.245116 113.35012 82.410156 113.32812 L 82.070312 115.84375 C 82.619633 115.68994 83.090821 115.61328 83.486328 115.61328 C 84.086915 115.61328 84.596192 115.84082 85.013672 116.29492 C 85.431152 116.74902 85.640625 117.36426 85.640625 118.14062 C 85.640625 118.96094 85.419922 119.6123 84.980469 120.0957 C 84.548342 120.5791 84.014166 120.82031 83.376953 120.82031 C 82.783693 120.82031 82.278808 120.61963 81.861328 120.2168 C 81.443848 119.81396 81.18701 119.23242 81.091797 118.4707 L 78.103516 118.83203 C 78.257322 120.18701 78.813964 121.28662 79.773438 122.12891 C 80.732911 122.96387 81.940918 123.38086 83.398438 123.38086 C 84.936524 123.38086 86.223146 122.88281 87.255859 121.88672 C 88.288573 120.89063 88.804688 119.68506 88.804688 118.27148 C 88.804688 117.29736 88.52539 116.46582 87.96875 115.77734 C 87.419437 115.08887 86.684572 114.64697 85.761719 114.44922 C 87.307125 113.60693 88.080078 112.47803 88.080078 111.06445 C 88.080078 110.06836 87.701659 109.17579 86.947266 108.38477 C 86.031739 107.41797 84.816895 106.93359 83.300781 106.93359 z M 177.82227 106.93359 C 176.29151 106.93359 175.07227 107.33252 174.16406 108.13086 C 173.25586 108.92187 172.73291 110.07568 172.59375 111.5918 L 174.62695 111.80078 C 174.63427 110.79004 174.92285 109.99903 175.49414 109.42773 C 176.06543 108.85645 176.82715 108.57031 177.7793 108.57031 C 178.68018 108.57031 179.4082 108.84277 179.96484 109.38477 C 180.52881 109.91943 180.81055 110.57763 180.81055 111.36133 C 180.81055 112.10839 180.50391 112.90381 179.88867 113.74609 C 179.27344 114.58105 178.09034 115.7168 176.33984 117.15234 C 175.21192 118.0752 174.34863 118.88672 173.74805 119.58984 C 173.15479 120.29296 172.72217 121.00732 172.45117 121.73242 C 172.2827 122.17188 172.20604 122.6294 172.2207 123.10547 L 182.86523 123.10547 L 182.86523 121.20508 L 174.9668 121.20508 C 175.18652 120.84619 175.46387 120.49219 175.80078 120.14062 C 176.1377 119.78174 176.89942 119.10352 178.08594 118.10742 C 179.50684 116.90625 180.52295 115.96191 181.13086 115.27344 C 181.7461 114.58496 182.18555 113.92919 182.44922 113.30664 C 182.71289 112.68408 182.84375 112.05078 182.84375 111.40625 C 182.84375 110.13916 182.39307 109.07568 181.49219 108.21875 C 180.59131 107.36182 179.36767 106.93359 177.82227 106.93359 z M 190.24805 106.93359 C 189.07617 106.93359 188.10254 107.24903 187.32617 107.87891 C 186.55713 108.50879 185.97558 109.40576 185.58008 110.57031 C 185.19189 111.72754 184.99805 113.25781 184.99805 115.16211 C 184.99805 118.18701 185.52783 120.3706 186.58984 121.71094 C 187.47607 122.82422 188.69531 123.38086 190.24805 123.38086 C 191.42725 123.38086 192.40284 123.06543 193.17188 122.43555 C 193.94824 121.79833 194.52978 120.90137 194.91797 119.74414 C 195.30615 118.57959 195.5 117.05176 195.5 115.16211 C 195.5 113.56543 195.37842 112.29883 195.13672 111.36133 C 194.89502 110.4165 194.56347 109.61865 194.13867 108.9668 C 193.71387 108.30762 193.17529 107.80518 192.52344 107.46094 C 191.87158 107.10938 191.1123 106.93359 190.24805 106.93359 z M 213.19531 106.93359 C 212.85107 107.62939 212.26514 108.34814 211.4375 109.08789 C 210.60987 109.82764 209.64307 110.45654 208.53711 110.97656 L 208.53711 112.88867 C 209.15234 112.66163 209.84423 112.32129 210.61328 111.86719 C 211.38965 111.41309 212.01611 110.95801 212.49219 110.50391 L 212.49219 123.10547 L 214.46875 123.10547 L 214.46875 106.93359 L 213.19531 106.93359 z M 224.60938 106.93359 C 223.15918 106.93359 221.95118 107.43164 220.98438 108.42773 C 220.0249 109.42383 219.54492 110.73975 219.54492 112.37305 C 219.54492 113.95508 220.00683 115.22851 220.92969 116.19531 C 221.85254 117.16211 222.97949 117.64648 224.3125 117.64648 C 225.11084 117.64648 225.85205 117.45263 226.5332 117.06445 C 227.22168 116.66894 227.7627 116.15527 228.1582 115.52539 C 228.16554 115.70117 228.16992 115.83398 228.16992 115.92188 C 228.16992 116.74219 228.0708 117.54688 227.87305 118.33789 C 227.67529 119.1289 227.42969 119.75976 227.13672 120.22852 C 226.84375 120.68994 226.46729 121.05957 226.00586 121.33789 C 225.55176 121.61621 225.02002 121.75391 224.41211 121.75391 C 223.70166 121.75391 223.12012 121.55322 222.66602 121.15039 C 222.21192 120.74756 221.90332 120.09863 221.74219 119.20508 L 219.8418 119.38086 C 220.00293 120.64795 220.48291 121.63477 221.28125 122.33789 C 222.07959 123.03369 223.10742 123.38086 224.36719 123.38086 C 225.55371 123.38086 226.58789 123.06299 227.4668 122.42578 C 228.35302 121.78857 229.01806 120.86035 229.46484 119.64453 C 229.91162 118.42139 230.13672 116.78076 230.13672 114.72266 C 230.13672 112.74512 229.90918 111.23731 229.45508 110.19727 C 229.0083 109.14991 228.34814 108.34326 227.47656 107.7793 C 226.61231 107.21533 225.65674 106.93359 224.60938 106.93359 z M 248.62891 106.93359 C 248.28467 107.62939 247.69873 108.34814 246.87109 109.08789 C 246.04346 109.82764 245.07666 110.45654 243.9707 110.97656 L 243.9707 112.88867 C 244.58594 112.66163 245.27783 112.32129 246.04688 111.86719 C 246.82324 111.41309 247.44971 110.95801 247.92578 110.50391 L 247.92578 123.10547 L 249.90234 123.10547 L 249.90234 106.93359 L 248.62891 106.93359 z M 260.23047 106.93359 C 258.83154 106.93359 257.70947 107.33252 256.86719 108.13086 C 256.0249 108.9292 255.60352 109.91601 255.60352 111.08789 C 255.60352 111.86426 255.80176 112.5293 256.19727 113.08594 C 256.59278 113.64258 257.20118 114.0708 258.02148 114.37109 C 257.04004 114.62744 256.28272 115.11182 255.74805 115.82227 C 255.22071 116.52539 254.95703 117.3999 254.95703 118.44727 C 254.95703 119.85351 255.44385 121.02978 256.41797 121.97461 C 257.39209 122.91211 258.67236 123.38086 260.26172 123.38086 C 261.85107 123.38086 263.1333 122.91211 264.10742 121.97461 C 265.08154 121.03711 265.56836 119.87891 265.56836 118.50195 C 265.56836 117.50586 265.30908 116.64941 264.78906 115.93164 C 264.27637 115.21387 263.52588 114.69336 262.53711 114.37109 C 263.33544 114.0708 263.92822 113.64698 264.31641 113.09766 C 264.71191 112.54102 264.91016 111.88964 264.91016 111.14258 C 264.91016 109.9707 264.48193 108.97705 263.625 108.16406 C 262.76807 107.34375 261.63672 106.93359 260.23047 106.93359 z M 90.792969 107 L 90.792969 109.72461 L 91.375 112.72461 L 93.650391 112.72461 L 94.154297 109.72461 L 94.154297 107 L 90.792969 107 z M 197.57617 107 L 197.57617 109.69141 L 198.08203 112.70117 L 199.30078 112.70117 L 199.82812 109.69141 L 199.82812 107 L 197.57617 107 z M 232.125 107 L 232.125 109.69141 L 232.62891 112.70117 L 233.84961 112.70117 L 234.37695 109.69141 L 234.37695 107 L 232.125 107 z M 267.55664 107 L 267.55664 109.69141 L 268.0625 112.70117 L 269.2832 112.70117 L 269.81055 109.69141 L 269.81055 107 L 267.55664 107 z M 106.95703 107.07227 C 105.42626 107.07227 104.20703 107.47119 103.29883 108.26953 C 102.39062 109.06054 101.86768 110.21436 101.72852 111.73047 L 103.75977 111.93945 C 103.76709 110.92871 104.05762 110.1377 104.62891 109.56641 C 105.2002 108.99512 105.96192 108.70898 106.91406 108.70898 C 107.81494 108.70898 108.54297 108.97949 109.09961 109.52148 C 109.66358 110.05615 109.94531 110.71631 109.94531 111.5 C 109.94531 112.24707 109.63868 113.04053 109.02344 113.88281 C 108.4082 114.71777 107.2251 115.85352 105.47461 117.28906 C 104.34668 118.21192 103.48145 119.02539 102.88086 119.72852 C 102.28759 120.43164 101.85498 121.14599 101.58398 121.87109 C 101.41551 122.31055 101.33885 122.76807 101.35352 123.24414 L 112 123.24414 L 112 121.34375 L 104.10156 121.34375 C 104.32129 120.98486 104.59863 120.62891 104.93555 120.27734 C 105.27246 119.91846 106.03418 119.24023 107.2207 118.24414 C 108.6416 117.04297 109.65576 116.09864 110.26367 115.41016 C 110.87891 114.72168 111.31836 114.06592 111.58203 113.44336 C 111.8457 112.8208 111.97852 112.1875 111.97852 111.54297 C 111.97852 110.27588 111.52783 109.21436 110.62695 108.35742 C 109.72607 107.50049 108.50244 107.07227 106.95703 107.07227 z M 119.48242 107.07227 C 117.95166 107.07227 116.73047 107.47119 115.82227 108.26953 C 114.91407 109.06054 114.39111 110.21436 114.25195 111.73047 L 116.28516 111.93945 C 116.29248 110.92871 116.58105 110.1377 117.15234 109.56641 C 117.72363 108.99512 118.48535 108.70898 119.4375 108.70898 C 120.33838 108.70898 121.06641 108.97949 121.62305 109.52148 C 122.18701 110.05615 122.4707 110.71631 122.4707 111.5 C 122.4707 112.24707 122.16211 113.04053 121.54688 113.88281 C 120.93164 114.71777 119.74854 115.85352 117.99805 117.28906 C 116.87012 118.21192 116.00684 119.02539 115.40625 119.72852 C 114.81299 120.43164 114.38038 121.14599 114.10938 121.87109 C 113.9409 122.31055 113.86424 122.76807 113.87891 123.24414 L 124.52344 123.24414 L 124.52344 121.34375 L 116.625 121.34375 C 116.84473 120.98486 117.12402 120.62891 117.46094 120.27734 C 117.79786 119.91846 118.55957 119.24023 119.74609 118.24414 C 121.16699 117.04297 122.18116 116.09864 122.78906 115.41016 C 123.4043 114.72168 123.84376 114.06592 124.10742 113.44336 C 124.3711 112.8208 124.50195 112.1875 124.50195 111.54297 C 124.50195 110.27588 124.05127 109.21436 123.15039 108.35742 C 122.24951 107.50049 121.02783 107.07227 119.48242 107.07227 z M 142.39062 107.07227 C 140.85986 107.07227 139.64063 107.47119 138.73242 108.26953 C 137.82422 109.06054 137.29932 110.21436 137.16016 111.73047 L 139.19336 111.93945 C 139.20068 110.92871 139.48925 110.13769 140.06055 109.56641 C 140.63183 108.99511 141.39356 108.70898 142.3457 108.70898 C 143.24658 108.70898 143.97656 108.97949 144.5332 109.52148 C 145.09717 110.05615 145.37891 110.71631 145.37891 111.5 C 145.37891 112.24707 145.07031 113.04053 144.45508 113.88281 C 143.83984 114.71777 142.65674 115.85352 140.90625 117.28906 C 139.77832 118.21192 138.91504 119.02539 138.31445 119.72852 C 137.72119 120.43164 137.28858 121.146 137.01758 121.87109 C 136.8491 122.31055 136.77244 122.76807 136.78711 123.24414 L 147.43359 123.24414 L 147.43359 121.34375 L 139.5332 121.34375 C 139.75293 120.98486 140.03223 120.62891 140.36914 120.27734 C 140.70606 119.91846 141.46778 119.24023 142.6543 118.24414 C 144.0752 117.04297 145.08936 116.09864 145.69727 115.41016 C 146.3125 114.72168 146.75195 114.06592 147.01562 113.44336 C 147.2793 112.8208 147.41016 112.1875 147.41016 111.54297 C 147.41016 110.27588 146.95947 109.21436 146.05859 108.35742 C 145.15771 107.50049 143.93603 107.07227 142.39062 107.07227 z M 155.73828 107.07227 C 155.39404 107.76807 154.80811 108.48486 153.98047 109.22461 C 153.15284 109.96436 152.18604 110.59521 151.08008 111.11523 L 151.08008 113.02539 C 151.69532 112.79834 152.38721 112.45801 153.15625 112.00391 C 153.93262 111.54981 154.55908 111.09668 155.03516 110.64258 L 155.03516 123.24414 L 157.01367 123.24414 L 157.01367 107.07227 L 155.73828 107.07227 z M 126.71094 107.13672 L 126.71094 109.83008 L 127.2168 112.83984 L 128.43555 112.83984 L 128.96289 109.83008 L 128.96289 107.13672 L 126.71094 107.13672 z M 162.14258 107.13672 L 162.14258 109.83008 L 162.64844 112.83984 L 163.86914 112.83984 L 164.39648 109.83008 L 164.39648 107.13672 L 162.14258 107.13672 z M 260.25195 108.56055 C 260.99902 108.56055 261.62109 108.80859 262.11914 109.30664 C 262.62451 109.79736 262.87695 110.40576 262.87695 111.13086 C 262.87695 111.82666 262.63134 112.41699 262.14062 112.90039 C 261.65722 113.37646 261.03516 113.61328 260.27344 113.61328 C 259.48974 113.61328 258.85205 113.37207 258.36133 112.88867 C 257.87061 112.40528 257.625 111.7832 257.625 111.02148 C 257.625 110.34766 257.875 109.76856 258.37305 109.28516 C 258.87109 108.80176 259.49756 108.56055 260.25195 108.56055 z M 190.22656 108.57031 C 191.14942 108.57031 191.91797 109.00733 192.5332 109.87891 C 193.15576 110.75049 193.4668 112.51074 193.4668 115.16211 C 193.4668 117.79882 193.15576 119.55664 192.5332 120.43555 C 191.91797 121.31445 191.15625 121.75391 190.24805 121.75391 C 189.33984 121.75391 188.57569 121.31885 187.95312 120.44727 C 187.33789 119.56836 187.0293 117.80615 187.0293 115.16211 C 187.0293 112.51806 187.36963 110.70606 188.05078 109.72461 C 188.59277 108.95557 189.31836 108.57031 190.22656 108.57031 z M 224.85156 108.57031 C 225.70117 108.57031 226.42676 108.90381 227.02734 109.57031 C 227.63526 110.23682 227.93945 111.13818 227.93945 112.27344 C 227.93945 113.40869 227.64209 114.29883 227.04883 114.94336 C 226.46289 115.58057 225.7124 115.89844 224.79688 115.89844 C 223.88867 115.89844 223.12255 115.58057 222.5 114.94336 C 221.88476 114.29883 221.57812 113.46289 221.57812 112.4375 C 221.57813 111.29492 221.90283 110.36621 222.55469 109.64844 C 223.20654 108.93066 223.97266 108.57031 224.85156 108.57031 z M 260.21875 115.22852 C 261.1709 115.22852 261.96191 115.53955 262.5918 116.16211 C 263.229 116.78467 263.54688 117.57324 263.54688 118.52539 C 263.54688 119.46289 263.24023 120.23584 262.625 120.84375 C 262.00976 121.45166 261.22998 121.75391 260.28516 121.75391 C 259.67724 121.75391 259.10937 121.61182 258.58203 121.32617 C 258.05468 121.03321 257.65576 120.62305 257.38477 120.0957 C 257.12109 119.56836 256.98828 119.02295 256.98828 118.45898 C 256.98828 117.53613 257.29248 116.76758 257.90039 116.15234 C 258.51563 115.53711 259.28858 115.22852 260.21875 115.22852 z M 142.32812 142.36133 C 141.98388 143.05713 141.39795 143.77588 140.57031 144.51562 C 139.74268 145.25537 138.77588 145.88428 137.66992 146.4043 L 137.66992 148.31641 C 138.28516 148.08936 138.97705 147.74903 139.74609 147.29492 C 140.52246 146.84082 141.14893 146.38574 141.625 145.93164 L 141.625 158.5332 L 143.60352 158.5332 L 143.60352 142.36133 L 142.32812 142.36133 z M 153.73242 142.36133 C 152.458 142.36133 151.39209 142.72851 150.53516 143.46094 C 149.67822 144.18603 149.12842 145.21142 148.88672 146.53711 L 150.86523 146.88867 C 151.01172 145.92187 151.34082 145.19628 151.85352 144.71289 C 152.36622 144.22949 153.0083 143.98828 153.77734 143.98828 C 154.55371 143.98828 155.18701 144.2251 155.67773 144.70117 C 156.16845 145.17725 156.41406 145.77881 156.41406 146.50391 C 156.41406 147.41943 156.07617 148.0957 155.40234 148.53516 C 154.72852 148.97461 153.97119 149.19531 153.12891 149.19531 C 153.04834 149.19531 152.94239 149.18849 152.81055 149.17383 L 152.58984 150.9082 C 153.14648 150.76172 153.61084 150.68945 153.98438 150.68945 C 154.8999 150.68945 155.65479 150.98682 156.24805 151.58008 C 156.84131 152.16602 157.13867 152.91211 157.13867 153.82031 C 157.13867 154.77247 156.81641 155.57032 156.17188 156.21484 C 155.53467 156.85938 154.75049 157.18164 153.82031 157.18164 C 153.03662 157.18164 152.36963 156.93603 151.82031 156.44531 C 151.27833 155.94727 150.89502 155.13818 150.66797 154.01758 L 148.68945 154.28125 C 148.82129 155.62158 149.35302 156.71436 150.2832 157.55664 C 151.2207 158.39893 152.39502 158.81836 153.80859 158.81836 C 155.37597 158.81836 156.67383 158.33154 157.69922 157.35742 C 158.72461 156.37598 159.23633 155.18359 159.23633 153.77734 C 159.23633 152.7373 158.97266 151.87207 158.44531 151.18359 C 157.91797 150.48779 157.17871 150.03027 156.22656 149.81055 C 156.95898 149.47363 157.51123 149.01855 157.88477 148.44727 C 158.2583 147.87598 158.44531 147.24268 158.44531 146.54688 C 158.44531 145.81445 158.24707 145.12256 157.85156 144.4707 C 157.46338 143.81884 156.8999 143.30713 156.16016 142.93359 C 155.42041 142.55273 154.61132 142.36133 153.73242 142.36133 z M 70.474609 142.36719 C 70.123043 143.34863 69.474117 144.20948 68.529297 144.94922 C 67.58447 145.68165 66.709964 146.17969 65.904297 146.44336 L 65.904297 149.24414 C 67.435064 148.73877 68.764651 147.95898 69.892578 146.9043 L 69.892578 158.53906 L 72.978516 158.53906 L 72.978516 142.36719 L 70.474609 142.36719 z M 83.492188 142.36719 C 81.749021 142.36719 80.331541 143.01856 79.240234 144.32227 C 78.148921 145.62598 77.603516 147.75342 77.603516 150.70508 C 77.603516 153.5835 78.128415 155.65674 79.175781 156.92383 C 80.223141 158.18359 81.559567 158.81445 83.185547 158.81445 C 84.70166 158.81445 85.943363 158.31641 86.910156 157.32031 C 87.876956 156.32422 88.359375 155.00146 88.359375 153.35352 C 88.359375 151.80078 87.897463 150.53417 86.974609 149.55273 C 86.059083 148.57129 84.957029 148.08008 83.667969 148.08008 C 82.525389 148.08008 81.569828 148.53516 80.800781 149.44336 C 80.917975 147.59033 81.199711 146.36914 81.646484 145.7832 C 82.100584 145.19726 82.654781 144.9043 83.306641 144.9043 C 83.797361 144.9043 84.196286 145.05078 84.503906 145.34375 C 84.81152 145.63672 85.000972 146.0918 85.074219 146.70703 L 88.0625 146.37695 C 87.842773 145.07324 87.331057 144.08154 86.525391 143.40039 C 85.727051 142.71192 84.715328 142.36719 83.492188 142.36719 z M 213.19531 142.36719 C 212.85107 143.06299 212.26513 143.78174 211.4375 144.52148 C 210.60986 145.26123 209.64306 145.89014 208.53711 146.41016 L 208.53711 148.32227 C 209.15234 148.09521 209.84424 147.75488 210.61328 147.30078 C 211.38965 146.84668 212.01611 146.39161 212.49219 145.9375 L 212.49219 158.53906 L 214.46875 158.53906 L 214.46875 142.36719 L 213.19531 142.36719 z M 161.25781 142.42773 L 161.25781 145.11914 L 161.76367 148.12891 L 162.98242 148.12891 L 163.50977 145.11914 L 163.50977 142.42773 L 161.25781 142.42773 z M 90.183594 142.43359 L 90.183594 145.1582 L 90.765625 148.15625 L 93.039062 148.15625 L 93.544922 145.1582 L 93.544922 142.43359 L 90.183594 142.43359 z M 232.125 142.43359 L 232.125 145.125 L 232.62891 148.13477 L 233.84961 148.13477 L 234.37695 145.125 L 234.37695 142.43359 L 232.125 142.43359 z M 106.89648 142.50391 C 106.55224 143.19971 105.96631 143.91846 105.13867 144.6582 C 104.31104 145.39795 103.34424 146.02686 102.23828 146.54688 L 102.23828 148.45898 C 102.85352 148.23194 103.54541 147.89161 104.31445 147.4375 C 105.09082 146.9834 105.71729 146.53027 106.19336 146.07617 L 106.19336 158.67578 L 108.16992 158.67578 L 108.16992 142.50391 L 106.89648 142.50391 z M 177.76172 142.50391 C 177.41749 143.19971 176.83155 143.91846 176.00391 144.6582 C 175.17627 145.39795 174.20948 146.02686 173.10352 146.54688 L 173.10352 148.45898 C 173.71875 148.23193 174.41064 147.8916 175.17969 147.4375 C 175.95605 146.9834 176.58252 146.52832 177.05859 146.07422 L 177.05859 158.67578 L 179.03711 158.67578 L 179.03711 142.50391 L 177.76172 142.50391 z M 189.46289 142.50391 C 187.93213 142.50391 186.71289 142.90283 185.80469 143.70117 C 184.89648 144.49219 184.37158 145.646 184.23242 147.16211 L 186.26562 147.37109 C 186.27295 146.36035 186.56153 145.56933 187.13281 144.99805 C 187.7041 144.42675 188.46582 144.14062 189.41797 144.14062 C 190.31885 144.14062 191.04883 144.41308 191.60547 144.95508 C 192.16943 145.48974 192.45117 146.14795 192.45117 146.93164 C 192.45117 147.67871 192.14258 148.47413 191.52734 149.31641 C 190.91211 150.15137 189.729 151.28711 187.97852 152.72266 C 186.85058 153.64551 185.9873 154.45703 185.38672 155.16016 C 184.79345 155.86328 184.36084 156.57764 184.08984 157.30273 C 183.92137 157.74219 183.84471 158.19971 183.85938 158.67578 L 194.50586 158.67578 L 194.50586 156.77539 L 186.60547 156.77539 C 186.8252 156.4165 187.10449 156.0625 187.44141 155.71094 C 187.77832 155.35205 188.54004 154.67383 189.72656 153.67773 C 191.14746 152.47656 192.16162 151.53223 192.76953 150.84375 C 193.38476 150.15528 193.82422 149.49951 194.08789 148.87695 C 194.35156 148.25439 194.48242 147.6211 194.48242 146.97656 C 194.48242 145.70948 194.03173 144.646 193.13086 143.78906 C 192.22998 142.93213 191.0083 142.50391 189.46289 142.50391 z M 248.62891 142.50391 C 248.28467 143.19971 247.69873 143.91846 246.87109 144.6582 C 246.04346 145.39795 245.07666 146.02686 243.9707 146.54688 L 243.9707 148.45898 C 244.58594 148.23194 245.27783 147.89161 246.04688 147.4375 C 246.82324 146.9834 247.44971 146.53027 247.92578 146.07617 L 247.92578 158.67578 L 249.90234 158.67578 L 249.90234 142.50391 L 248.62891 142.50391 z M 125.82617 142.57031 L 125.82617 145.26172 L 126.33008 148.27344 L 127.55078 148.27344 L 128.07812 145.26172 L 128.07812 142.57031 L 125.82617 142.57031 z M 196.69141 142.57031 L 196.69141 145.26172 L 197.19727 148.27148 L 198.41602 148.27148 L 198.94336 145.26172 L 198.94336 142.57031 L 196.69141 142.57031 z M 261.67969 142.57031 L 254.33008 153.00781 L 254.33008 154.82031 L 261.31641 154.82031 L 261.31641 158.67578 L 263.29492 158.67578 L 263.29492 154.82031 L 265.4707 154.82031 L 265.4707 153.00781 L 263.29492 153.00781 L 263.29492 142.57031 L 261.67969 142.57031 z M 267.55664 142.57031 L 267.55664 145.26172 L 268.0625 148.27344 L 269.2832 148.27344 L 269.81055 145.26172 L 269.81055 142.57031 L 267.55664 142.57031 z M 221.45703 142.65234 L 219.89648 150.92578 L 221.75391 151.16797 C 222.04687 150.70654 222.44824 150.33252 222.96094 150.04688 C 223.47364 149.75391 224.05029 149.60742 224.6875 149.60742 C 225.71289 149.60742 226.54004 149.93408 227.16992 150.58594 C 227.80713 151.23779 228.125 152.12597 228.125 153.25391 C 228.125 154.44043 227.7959 155.39355 227.13672 156.11133 C 226.47754 156.8291 225.6709 157.1875 224.71875 157.1875 C 223.92773 157.1875 223.25146 156.93505 222.6875 156.42969 C 222.13086 155.91699 221.77491 155.15527 221.62109 154.14453 L 219.54492 154.32031 C 219.67676 155.67529 220.2041 156.76367 221.12695 157.58398 C 222.05713 158.4043 223.2539 158.81445 224.71875 158.81445 C 226.50586 158.81445 227.91651 158.16114 228.94922 156.85742 C 229.79883 155.79542 230.22461 154.53564 230.22461 153.07812 C 230.22461 151.54736 229.74024 150.29639 228.77344 149.32227 C 227.80664 148.34815 226.6211 147.86133 225.21484 147.86133 C 224.15283 147.86133 223.13672 148.19727 222.16992 148.87109 L 223.03906 144.54297 L 229.46484 144.54297 L 229.46484 142.65234 L 221.45703 142.65234 z M 113.37695 142.7793 L 113.37695 144.67969 L 121.26562 144.67969 C 120.26221 145.82226 119.31348 147.22851 118.41992 148.89844 C 117.53369 150.56103 116.85303 152.28955 116.37695 154.08398 C 115.90091 155.87842 115.65286 157.40869 115.63086 158.67578 L 117.66211 158.67578 C 117.77197 157.07177 118.02441 155.59765 118.41992 154.25 C 118.96924 152.33838 119.74658 150.47706 120.75 148.66797 C 121.76074 146.85889 122.77929 145.40967 123.80469 144.31836 L 123.80469 142.7793 L 113.37695 142.7793 z M 261.31641 145.74609 L 261.31641 153.00781 L 256.27539 153.00781 L 261.31641 145.74609 z M 83.185547 150.35352 C 83.80078 150.35352 84.312503 150.59912 84.722656 151.08984 C 85.132816 151.57324 85.337891 152.33936 85.337891 153.38672 C 85.337891 154.40479 85.148438 155.1372 84.767578 155.58398 C 84.386718 156.03076 83.91113 156.25391 83.339844 156.25391 C 82.746577 156.25391 82.219233 155.9834 81.757812 155.44141 C 81.296386 154.89209 81.064453 154.11474 81.064453 153.11133 C 81.064453 152.20312 81.269534 151.51807 81.679688 151.05664 C 82.089847 150.58789 82.592287 150.35352 83.185547 150.35352 z M 115.61914 177.80078 C 113.91992 177.80078 112.56787 178.41602 111.56445 179.64648 C 110.41455 181.06006 109.83984 183.32275 109.83984 186.43555 C 109.83984 189.21875 110.36035 191.21777 111.40039 192.43359 C 112.44043 193.64209 113.78369 194.24609 115.43164 194.24609 C 116.39844 194.24609 117.26367 194.01611 118.02539 193.55469 C 118.7871 193.09327 119.38427 192.43067 119.81641 191.56641 C 120.25586 190.69483 120.47461 189.75293 120.47461 188.74219 C 120.47461 187.2041 120.01026 185.95312 119.08008 184.98633 C 118.15723 184.01221 117.03711 183.52344 115.71875 183.52344 C 114.96436 183.52344 114.24121 183.69922 113.55273 184.05078 C 112.86426 184.40234 112.28272 184.94092 111.80664 185.66602 C 111.82129 184.05469 112.0083 182.81299 112.36719 181.94141 C 112.72607 181.06982 113.21728 180.40722 113.83984 179.95312 C 114.31592 179.60156 114.86817 179.42578 115.49805 179.42578 C 116.28174 179.42578 116.9419 179.70752 117.47656 180.27148 C 117.79883 180.62305 118.04688 181.18848 118.22266 181.96484 L 120.18945 181.81055 C 120.02832 180.55811 119.5415 179.57569 118.72852 178.86523 C 117.92286 178.15479 116.88623 177.80078 115.61914 177.80078 z M 144.49219 177.80078 C 144.14795 178.49658 143.56201 179.21338 142.73438 179.95312 C 141.90674 180.69287 140.93994 181.32373 139.83398 181.84375 L 139.83398 183.75586 C 140.44922 183.52881 141.14307 183.18652 141.91211 182.73242 C 142.68848 182.27832 143.31299 181.82519 143.78906 181.37109 L 143.78906 193.97266 L 145.76758 193.97266 L 145.76758 177.80078 L 144.49219 177.80078 z M 156.09375 177.80078 C 154.92188 177.80078 153.94824 178.11621 153.17188 178.74609 C 152.40283 179.37598 151.82129 180.27295 151.42578 181.4375 C 151.0376 182.59473 150.84375 184.125 150.84375 186.0293 C 150.84375 189.0542 151.37353 191.23584 152.43555 192.57617 C 153.32177 193.68945 154.54102 194.24609 156.09375 194.24609 C 157.27295 194.24609 158.24853 193.93261 159.01758 193.30273 C 159.79394 192.66553 160.37549 191.76855 160.76367 190.61133 C 161.15186 189.44677 161.3457 187.91894 161.3457 186.0293 C 161.3457 184.43262 161.22608 183.16602 160.98438 182.22852 C 160.74267 181.28369 160.40918 180.48388 159.98438 179.83203 C 159.55957 179.17285 159.021 178.67237 158.36914 178.32812 C 157.71729 177.97657 156.95801 177.80078 156.09375 177.80078 z M 256.6582 177.80078 C 255.208 177.80078 254 178.29883 253.0332 179.29492 C 252.07373 180.29102 251.59375 181.60498 251.59375 183.23828 C 251.59375 184.82031 252.05566 186.09571 252.97852 187.0625 C 253.90137 188.0293 255.03027 188.51172 256.36328 188.51172 C 257.16162 188.51172 257.90088 188.31787 258.58203 187.92969 C 259.2705 187.53418 259.81152 187.02246 260.20703 186.39258 C 260.21436 186.56836 260.21875 186.69922 260.21875 186.78711 C 260.21875 187.60742 260.11963 188.41406 259.92188 189.20508 C 259.72412 189.99609 259.47852 190.625 259.18555 191.09375 C 258.89258 191.55517 258.51611 191.9248 258.05469 192.20312 C 257.60059 192.48144 257.06885 192.62109 256.46094 192.62109 C 255.75049 192.62109 255.16894 192.42041 254.71484 192.01758 C 254.26074 191.61474 253.95215 190.96582 253.79102 190.07227 L 251.89062 190.24805 C 252.05176 191.51513 252.53174 192.5 253.33008 193.20312 C 254.12842 193.89892 255.1582 194.24609 256.41797 194.24609 C 257.60449 194.24609 258.63672 193.92822 259.51562 193.29102 C 260.40186 192.65381 261.06885 191.72754 261.51562 190.51172 C 261.96241 189.28857 262.18555 187.64794 262.18555 185.58984 C 262.18555 183.6123 261.95801 182.10254 261.50391 181.0625 C 261.05713 180.01513 260.39892 179.21044 259.52734 178.64648 C 258.66308 178.08252 257.70556 177.80078 256.6582 177.80078 z M 221.41406 177.92188 C 220.01514 177.92187 218.89502 178.3208 218.05273 179.11914 C 217.21045 179.91748 216.78906 180.90235 216.78906 182.07422 C 216.78906 182.85059 216.98731 183.51758 217.38281 184.07422 C 217.77833 184.63086 218.38672 185.05908 219.20703 185.35938 C 218.22559 185.61572 217.46631 186.09814 216.93164 186.80859 C 216.4043 187.51171 216.14062 188.38818 216.14062 189.43555 C 216.14063 190.84179 216.62744 192.01611 217.60156 192.96094 C 218.57568 193.89844 219.85791 194.36719 221.44727 194.36719 C 223.03662 194.36719 224.31885 193.89844 225.29297 192.96094 C 226.26709 192.02344 226.75391 190.86719 226.75391 189.49023 C 226.75391 188.49414 226.49463 187.6377 225.97461 186.91992 C 225.46192 186.20215 224.71142 185.68164 223.72266 185.35938 C 224.521 185.05908 225.11377 184.6333 225.50195 184.08398 C 225.89746 183.52734 226.0957 182.87598 226.0957 182.12891 C 226.0957 180.95703 225.66553 179.96534 224.80859 179.15234 C 223.95166 178.33204 222.82031 177.92188 221.41406 177.92188 z M 181.37695 177.9375 C 181.03272 178.6333 180.44678 179.35205 179.61914 180.0918 C 178.79151 180.83154 177.82471 181.46045 176.71875 181.98047 L 176.71875 183.89258 C 177.33398 183.66552 178.02588 183.32519 178.79492 182.87109 C 179.57129 182.41699 180.19775 181.96192 180.67383 181.50781 L 180.67383 194.10938 L 182.65039 194.10938 L 182.65039 177.9375 L 181.37695 177.9375 z M 192.23047 177.9375 C 191.88623 178.6333 191.3003 179.35205 190.47266 180.0918 C 189.64502 180.83154 188.67823 181.46045 187.57227 181.98047 L 187.57227 183.89258 C 188.1875 183.66552 188.88134 183.32519 189.65039 182.87109 C 190.42676 182.41699 191.05127 181.96192 191.52734 181.50781 L 191.52734 194.10938 L 193.50586 194.10938 L 193.50586 177.9375 L 192.23047 177.9375 z M 74.435547 178.17773 L 74.435547 181.04492 L 81.457031 181.04492 C 80.006831 182.86866 78.846189 184.9375 77.974609 187.25195 C 77.110349 189.56641 76.652829 191.83594 76.601562 194.0625 L 79.578125 194.0625 C 79.570805 192.6416 79.800785 191.03028 80.269531 189.22852 C 80.745605 187.41944 81.435058 185.71337 82.335938 184.10938 C 83.236817 182.50537 84.122561 181.2749 84.994141 180.41797 L 84.994141 178.17773 L 74.435547 178.17773 z M 156.07227 179.4375 C 156.99512 179.4375 157.76367 179.87255 158.37891 180.74414 C 159.00147 181.61572 159.31445 183.37793 159.31445 186.0293 C 159.31445 188.66602 159.00147 190.42383 158.37891 191.30273 C 157.76367 192.18164 157.00196 192.62109 156.09375 192.62109 C 155.18555 192.62109 154.42139 192.18604 153.79883 191.31445 C 153.18359 190.43555 152.875 188.67334 152.875 186.0293 C 152.875 183.38525 153.21533 181.57324 153.89648 180.5918 C 154.43847 179.82275 155.16406 179.4375 156.07227 179.4375 z M 256.90039 179.4375 C 257.75 179.4375 258.47559 179.77099 259.07617 180.4375 C 259.68409 181.104 259.98828 182.00537 259.98828 183.14062 C 259.98828 184.27588 259.69092 185.16407 259.09766 185.80859 C 258.51172 186.4458 257.76123 186.76562 256.8457 186.76562 C 255.9375 186.76562 255.17139 186.4458 254.54883 185.80859 C 253.93359 185.16407 253.62695 184.33008 253.62695 183.30469 C 253.62695 182.16211 253.95362 181.23145 254.60547 180.51367 C 255.25733 179.7959 256.02148 179.4375 256.90039 179.4375 z M 221.4375 179.54688 C 222.18457 179.54687 222.80663 179.79688 223.30469 180.29492 C 223.81005 180.78565 224.0625 181.39405 224.0625 182.11914 C 224.0625 182.81494 223.81689 183.40332 223.32617 183.88672 C 222.84277 184.36279 222.2207 184.60156 221.45898 184.60156 C 220.6753 184.60156 220.0376 184.36035 219.54688 183.87695 C 219.05615 183.39355 218.81055 182.76953 218.81055 182.00781 C 218.81055 181.33399 219.06055 180.75684 219.55859 180.27344 C 220.05664 179.79004 220.68311 179.54688 221.4375 179.54688 z M 115.32227 185.27148 C 116.22315 185.27148 116.97119 185.59375 117.56445 186.23828 C 118.15771 186.87549 118.45312 187.75 118.45312 188.86328 C 118.45312 190.02051 118.15332 190.93555 117.55273 191.60938 C 116.95215 192.28321 116.2334 192.62109 115.39844 192.62109 C 114.82715 192.62109 114.28174 192.45899 113.76172 192.13672 C 113.2417 191.80713 112.83594 191.33154 112.54297 190.70898 C 112.25732 190.08642 112.11523 189.43506 112.11523 188.75391 C 112.11523 187.71387 112.42627 186.87549 113.04883 186.23828 C 113.67139 185.59375 114.42871 185.27148 115.32227 185.27148 z M 221.4043 186.2168 C 222.35644 186.2168 223.14746 186.52783 223.77734 187.15039 C 224.41455 187.77295 224.73242 188.55957 224.73242 189.51172 C 224.73242 190.44922 224.42578 191.22216 223.81055 191.83008 C 223.19531 192.43798 222.41357 192.74219 221.46875 192.74219 C 220.86084 192.74219 220.29492 192.60009 219.76758 192.31445 C 219.24023 192.02148 218.83935 191.61132 218.56836 191.08398 C 218.30469 190.55664 218.17383 190.00928 218.17383 189.44531 C 218.17383 188.52247 218.47802 187.75391 219.08594 187.13867 C 219.70117 186.52343 220.47412 186.2168 221.4043 186.2168 z M 113.47656 213.23438 C 111.77734 213.23438 110.42529 213.84961 109.42188 215.08008 C 108.27197 216.49365 107.69727 218.75635 107.69727 221.86914 C 107.69727 224.65235 108.21777 226.65137 109.25781 227.86719 C 110.29785 229.07568 111.64112 229.67969 113.28906 229.67969 C 114.25586 229.67969 115.12109 229.44971 115.88281 228.98828 C 116.64453 228.52685 117.2417 227.86425 117.67383 227 C 118.11328 226.12841 118.33203 225.18652 118.33203 224.17578 C 118.33203 222.63769 117.86767 221.38476 116.9375 220.41797 C 116.01465 219.44384 114.89453 218.95703 113.57617 218.95703 C 112.82178 218.95703 112.10059 219.13281 111.41211 219.48438 C 110.72364 219.83594 110.14014 220.37451 109.66406 221.09961 C 109.67871 219.48828 109.86572 218.24659 110.22461 217.375 C 110.5835 216.50342 111.07471 215.84082 111.69727 215.38672 C 112.17334 215.03515 112.72559 214.85938 113.35547 214.85938 C 114.13916 214.85937 114.79932 215.14111 115.33398 215.70508 C 115.65625 216.05664 115.9043 216.62011 116.08008 217.39648 L 118.04688 217.24414 C 117.88575 215.9917 117.39893 215.00928 116.58594 214.29883 C 115.78028 213.58838 114.74366 213.23438 113.47656 213.23438 z M 142.32812 213.23438 C 141.98389 213.93018 141.39795 214.64697 140.57031 215.38672 C 139.74267 216.12647 138.77588 216.75732 137.66992 217.27734 L 137.66992 219.1875 C 138.28516 218.96045 138.97901 218.62012 139.74805 218.16602 C 140.52442 217.71192 141.14893 217.25879 141.625 216.80469 L 141.625 229.40625 L 143.60352 229.40625 L 143.60352 213.23438 L 142.32812 213.23438 z M 153.92969 213.23438 C 152.75781 213.23438 151.78418 213.54785 151.00781 214.17773 C 150.23877 214.80762 149.65723 215.70459 149.26172 216.86914 C 148.87354 218.02637 148.67969 219.55859 148.67969 221.46289 C 148.67969 224.48779 149.20947 226.66943 150.27148 228.00977 C 151.15771 229.12305 152.37695 229.67969 153.92969 229.67969 C 155.10889 229.67969 156.08447 229.36426 156.85352 228.73438 C 157.62988 228.09717 158.21143 227.2002 158.59961 226.04297 C 158.9878 224.87842 159.18164 223.35254 159.18164 221.46289 C 159.18164 219.86621 159.06201 218.59766 158.82031 217.66016 C 158.57861 216.71533 158.24512 215.91748 157.82031 215.26562 C 157.39551 214.60645 156.85694 214.10596 156.20508 213.76172 C 155.55322 213.41016 154.79395 213.23438 153.92969 213.23438 z M 219.30273 213.23438 C 217.90381 213.23437 216.78369 213.6333 215.94141 214.43164 C 215.09912 215.22998 214.67773 216.21485 214.67773 217.38672 C 214.67773 218.16309 214.87598 218.83008 215.27148 219.38672 C 215.66699 219.94336 216.27539 220.37158 217.0957 220.67188 C 216.11426 220.92822 215.35499 221.41064 214.82031 222.12109 C 214.29297 222.82422 214.0293 223.70069 214.0293 224.74805 C 214.0293 226.1543 214.51611 227.32862 215.49023 228.27344 C 216.46435 229.21094 217.74658 229.67969 219.33594 229.67969 C 220.9253 229.67969 222.20752 229.21094 223.18164 228.27344 C 224.15576 227.33594 224.64258 226.17969 224.64258 224.80273 C 224.64258 223.80664 224.3833 222.94824 223.86328 222.23047 C 223.35059 221.5127 222.6001 220.99414 221.61133 220.67188 C 222.40967 220.37158 223.00244 219.9458 223.39062 219.39648 C 223.78613 218.83984 223.98438 218.18848 223.98438 217.44141 C 223.98438 216.26953 223.5542 215.27783 222.69727 214.46484 C 221.84033 213.64453 220.70898 213.23438 219.30273 213.23438 z M 254.53906 213.23438 C 253.08887 213.23437 251.88086 213.73242 250.91406 214.72852 C 249.95459 215.72461 249.47461 217.03857 249.47461 218.67188 C 249.47461 220.25391 249.93457 221.52734 250.85742 222.49414 C 251.78028 223.46093 252.90918 223.94531 254.24219 223.94531 C 255.04053 223.94531 255.77978 223.75146 256.46094 223.36328 C 257.14941 222.96777 257.69238 222.45411 258.08789 221.82422 C 258.09522 222 258.09766 222.13281 258.09766 222.2207 C 258.09766 223.04102 257.99853 223.84571 257.80078 224.63672 C 257.60303 225.42773 257.35937 226.05859 257.06641 226.52734 C 256.77343 226.98877 256.39502 227.3584 255.93359 227.63672 C 255.47949 227.91504 254.9497 228.05469 254.3418 228.05469 C 253.63134 228.05469 253.04785 227.85205 252.59375 227.44922 C 252.13965 227.04639 251.83301 226.39941 251.67188 225.50586 L 249.77148 225.68164 C 249.93262 226.94873 250.41064 227.9336 251.20898 228.63672 C 252.00732 229.33253 253.03711 229.67969 254.29688 229.67969 C 255.4834 229.67969 256.51562 229.36182 257.39453 228.72461 C 258.28076 228.0874 258.94775 227.16113 259.39453 225.94531 C 259.8413 224.72217 260.06445 223.08154 260.06445 221.02344 C 260.06445 219.0459 259.83691 217.53613 259.38281 216.49609 C 258.93604 215.44873 258.27784 214.64404 257.40625 214.08008 C 256.542 213.51611 255.58643 213.23438 254.53906 213.23438 z M 120.36523 213.29883 L 120.36523 215.99023 L 120.87109 219.00195 L 122.08984 219.00195 L 122.61719 215.99023 L 122.61719 213.29883 L 120.36523 213.29883 z M 161.25781 213.29883 L 161.25781 215.99023 L 161.76367 219.00195 L 162.98242 219.00195 L 163.50977 215.99023 L 163.50977 213.29883 L 161.25781 213.29883 z M 226.63086 213.29883 L 226.63086 215.99023 L 227.13672 219.00195 L 228.35547 219.00195 L 228.88281 215.99023 L 228.88281 213.29883 L 226.63086 213.29883 z M 262.05273 213.29883 L 262.05273 215.99023 L 262.55859 219.00195 L 263.77734 219.00195 L 264.30469 215.99023 L 264.30469 213.29883 L 262.05273 213.29883 z M 178.59766 213.37109 C 178.25342 214.06689 177.66748 214.78369 176.83984 215.52344 C 176.01221 216.26318 175.04541 216.89404 173.93945 217.41406 L 173.93945 219.32617 C 174.55469 219.09913 175.24658 218.75683 176.01562 218.30273 C 176.79199 217.84863 177.41846 217.39551 177.89453 216.94141 L 177.89453 229.54297 L 179.87109 229.54297 L 179.87109 213.37109 L 178.59766 213.37109 z M 189.45117 213.37109 C 189.10693 214.06689 188.521 214.78369 187.69336 215.52344 C 186.86573 216.26318 185.89893 216.89404 184.79297 217.41406 L 184.79297 219.32617 C 185.40821 219.09913 186.1001 218.75683 186.86914 218.30273 C 187.64551 217.84863 188.27197 217.39551 188.74805 216.94141 L 188.74805 229.54297 L 190.72656 229.54297 L 190.72656 213.37109 L 189.45117 213.37109 z M 84.333984 213.4043 L 84.333984 216.12891 L 84.916016 219.12695 L 87.189453 219.12695 L 87.695312 216.12891 L 87.695312 213.4043 L 84.333984 213.4043 z M 195.85547 213.4375 L 195.85547 216.12891 L 196.36133 219.13867 L 197.58203 219.13867 L 198.10938 216.12891 L 198.10938 213.4375 L 195.85547 213.4375 z M 71.753906 213.62305 L 71.753906 216.49023 L 78.773438 216.49023 C 77.323244 218.31397 76.162602 220.38281 75.291016 222.69727 C 74.426756 225.01172 73.969235 227.28321 73.917969 229.50977 L 76.894531 229.50977 C 76.887205 228.08887 77.119137 226.47753 77.587891 224.67578 C 78.063964 222.86669 78.751464 221.16064 79.652344 219.55664 C 80.553224 217.95263 81.44092 216.72217 82.3125 215.86523 L 82.3125 213.62305 L 71.753906 213.62305 z M 219.32617 214.85938 C 220.07324 214.85938 220.69531 215.10938 221.19336 215.60742 C 221.69873 216.09814 221.95117 216.70459 221.95117 217.42969 C 221.95117 218.12549 221.70556 218.71583 221.21484 219.19922 C 220.73144 219.6753 220.10938 219.91406 219.34766 219.91406 C 218.56396 219.91406 217.92627 219.6709 217.43555 219.1875 C 216.94483 218.7041 216.69922 218.08203 216.69922 217.32031 C 216.69922 216.64649 216.94922 216.06738 217.44727 215.58398 C 217.94531 215.10059 218.57178 214.85938 219.32617 214.85938 z M 153.9082 214.87109 C 154.83106 214.87109 155.59961 215.30615 156.21484 216.17773 C 156.8374 217.04931 157.15039 218.81152 157.15039 221.46289 C 157.15039 224.09961 156.8374 225.85742 156.21484 226.73633 C 155.59961 227.61523 154.83789 228.05469 153.92969 228.05469 C 153.02149 228.05469 152.25733 227.61768 151.63477 226.74609 C 151.01953 225.86719 150.71094 224.10693 150.71094 221.46289 C 150.71094 218.81885 151.05127 217.00488 151.73242 216.02344 C 152.27442 215.25439 153 214.87109 153.9082 214.87109 z M 254.78125 214.87109 C 255.63086 214.87109 256.35449 215.20459 256.95508 215.87109 C 257.56299 216.5376 257.86719 217.43701 257.86719 218.57227 C 257.86719 219.70752 257.57178 220.59765 256.97852 221.24219 C 256.39258 221.87939 255.64014 222.19922 254.72461 222.19922 C 253.8164 222.19922 253.05224 221.87939 252.42969 221.24219 C 251.81445 220.59765 251.50586 219.76367 251.50586 218.73828 C 251.50586 217.59571 251.83251 216.66504 252.48438 215.94727 C 253.13623 215.22949 253.90234 214.87109 254.78125 214.87109 z M 113.17969 220.70508 C 114.08057 220.70508 114.82861 221.02734 115.42188 221.67188 C 116.01514 222.30908 116.31055 223.18359 116.31055 224.29688 C 116.31055 225.4541 116.01074 226.36914 115.41016 227.04297 C 114.80957 227.7168 114.09277 228.05469 113.25781 228.05469 C 112.68652 228.05469 112.13916 227.89257 111.61914 227.57031 C 111.09912 227.24072 110.69336 226.76514 110.40039 226.14258 C 110.11474 225.52002 109.97266 224.86865 109.97266 224.1875 C 109.97266 223.14746 110.28369 222.30908 110.90625 221.67188 C 111.52881 221.02734 112.28613 220.70508 113.17969 220.70508 z M 219.29297 221.52734 C 220.24512 221.52734 221.03613 221.84034 221.66602 222.46289 C 222.30322 223.08545 222.62109 223.87207 222.62109 224.82422 C 222.62109 225.76172 222.31446 226.53466 221.69922 227.14258 C 221.08399 227.75049 220.30224 228.05469 219.35742 228.05469 C 218.74951 228.05469 218.18359 227.91065 217.65625 227.625 C 217.1289 227.33203 216.72802 226.92188 216.45703 226.39453 C 216.19336 225.86718 216.0625 225.32177 216.0625 224.75781 C 216.0625 223.83496 216.3667 223.06641 216.97461 222.45117 C 217.58985 221.83594 218.3628 221.52734 219.29297 221.52734 z M 144.46484 248.66016 C 144.1206 249.35596 143.53466 250.07471 142.70703 250.81445 C 141.87939 251.5542 140.91259 252.18311 139.80664 252.70312 L 139.80664 254.61523 C 140.42187 254.38818 141.11573 254.04785 141.88477 253.59375 C 142.66114 253.13965 143.28565 252.68652 143.76172 252.23242 L 143.76172 264.83203 L 145.74023 264.83203 L 145.74023 248.66016 L 144.46484 248.66016 z M 155.86914 248.66016 C 154.59473 248.66016 153.52881 249.02735 152.67188 249.75977 C 151.81494 250.48487 151.26709 251.51025 151.02539 252.83594 L 153.00195 253.1875 C 153.14844 252.2207 153.47754 251.49511 153.99023 251.01172 C 154.50293 250.52832 155.14502 250.28711 155.91406 250.28711 C 156.69043 250.28711 157.32373 250.52588 157.81445 251.00195 C 158.30517 251.47803 158.55078 252.07763 158.55078 252.80273 C 158.55078 253.71826 158.21289 254.39648 157.53906 254.83594 C 156.86524 255.27539 156.10791 255.49414 155.26562 255.49414 C 155.18506 255.49414 155.0791 255.48732 154.94727 255.47266 L 154.72656 257.20898 C 155.2832 257.0625 155.74951 256.98828 156.12305 256.98828 C 157.03857 256.98828 157.79151 257.28565 158.38477 257.87891 C 158.97803 258.46485 159.27539 259.21094 159.27539 260.11914 C 159.27539 261.07129 158.95312 261.87109 158.30859 262.51562 C 157.67138 263.16016 156.8872 263.48242 155.95703 263.48242 C 155.17334 263.48242 154.50634 263.23682 153.95703 262.74609 C 153.41504 262.24805 153.03173 261.43896 152.80469 260.31836 L 150.82617 260.58203 C 150.95801 261.92236 151.48975 263.01319 152.41992 263.85547 C 153.35742 264.69776 154.53369 265.11914 155.94727 265.11914 C 157.51465 265.11914 158.81054 264.63232 159.83594 263.6582 C 160.86132 262.67676 161.37305 261.48242 161.37305 260.07617 C 161.37305 259.03613 161.10937 258.1709 160.58203 257.48242 C 160.05468 256.78662 159.31543 256.3291 158.36328 256.10938 C 159.0957 255.77246 159.64795 255.31933 160.02148 254.74805 C 160.39502 254.17675 160.58203 253.54346 160.58203 252.84766 C 160.58203 252.11524 160.38575 251.42138 159.99023 250.76953 C 159.60205 250.11767 159.03662 249.60596 158.29688 249.23242 C 157.55713 248.85156 156.74805 248.66016 155.86914 248.66016 z M 73.058594 248.76367 C 72.707027 249.74512 72.058101 250.60596 71.113281 251.3457 C 70.168455 252.07813 69.293948 252.57618 68.488281 252.83984 L 68.488281 255.64062 C 70.019048 255.13525 71.346683 254.35547 72.474609 253.30078 L 72.474609 264.93555 L 75.5625 264.93555 L 75.5625 248.76367 L 73.058594 248.76367 z M 86.076172 248.76367 C 84.333012 248.76367 82.915525 249.41504 81.824219 250.71875 C 80.732905 252.02246 80.1875 254.1499 80.1875 257.10156 C 80.1875 259.97998 80.712399 262.05323 81.759766 263.32031 C 82.807126 264.58008 84.143551 265.20898 85.769531 265.20898 C 87.285645 265.20898 88.527347 264.71094 89.494141 263.71484 C 90.460941 262.71875 90.943359 261.39795 90.943359 259.75 C 90.943359 258.19726 90.481447 256.92871 89.558594 255.94727 C 88.643067 254.96582 87.541013 254.47656 86.251953 254.47656 C 85.109373 254.47656 84.153812 254.92969 83.384766 255.83789 C 83.501959 253.98486 83.783695 252.76562 84.230469 252.17969 C 84.684569 251.59375 85.238765 251.30078 85.890625 251.30078 C 86.381345 251.30078 86.780271 251.44727 87.087891 251.74023 C 87.395504 252.03321 87.584956 252.48828 87.658203 253.10352 L 90.646484 252.77344 C 90.426758 251.46972 89.915042 250.47608 89.109375 249.79492 C 88.311035 249.10645 87.299319 248.76367 86.076172 248.76367 z M 215.26172 248.78711 C 214.91748 249.48291 214.33155 250.20166 213.50391 250.94141 C 212.67627 251.68115 211.70948 252.31006 210.60352 252.83008 L 210.60352 254.74219 C 211.21876 254.51513 211.91065 254.1748 212.67969 253.7207 C 213.45605 253.2666 214.08252 252.81152 214.55859 252.35742 L 214.55859 264.95898 L 216.53711 264.95898 L 216.53711 248.78711 L 215.26172 248.78711 z M 109.0332 248.80469 C 108.68896 249.50049 108.10303 250.21728 107.27539 250.95703 C 106.44776 251.69678 105.48096 252.32764 104.375 252.84766 L 104.375 254.75781 C 104.99024 254.53077 105.68213 254.19043 106.45117 253.73633 C 107.22754 253.28223 107.854 252.8291 108.33008 252.375 L 108.33008 264.97656 L 110.30664 264.97656 L 110.30664 248.80469 L 109.0332 248.80469 z M 250.79688 248.80469 C 250.45264 249.50049 249.8667 250.21728 249.03906 250.95703 C 248.21142 251.69678 247.24463 252.32764 246.13867 252.84766 L 246.13867 254.75781 C 246.75391 254.53077 247.44776 254.19043 248.2168 253.73633 C 248.99316 253.28223 249.61768 252.8291 250.09375 252.375 L 250.09375 264.97656 L 252.07227 264.97656 L 252.07227 248.80469 L 250.79688 248.80469 z M 263.84961 248.86914 L 256.5 259.30664 L 256.5 261.11914 L 263.48633 261.11914 L 263.48633 264.97656 L 265.46484 264.97656 L 265.46484 261.11914 L 267.64062 261.11914 L 267.64062 259.30664 L 265.46484 259.30664 L 265.46484 248.86914 L 263.84961 248.86914 z M 179.97266 248.92578 C 179.62842 249.62158 179.04248 250.33838 178.21484 251.07812 C 177.3872 251.81787 176.42041 252.44873 175.31445 252.96875 L 175.31445 254.87891 C 175.92969 254.65185 176.62159 254.31152 177.39062 253.85742 C 178.16699 253.40332 178.79345 252.9502 179.26953 252.49609 L 179.26953 265.09766 L 181.24609 265.09766 L 181.24609 248.92578 L 179.97266 248.92578 z M 191.67188 248.92578 C 190.14111 248.92578 188.92188 249.32471 188.01367 250.12305 C 187.10547 250.91406 186.58252 252.06787 186.44336 253.58398 L 188.47461 253.79102 C 188.48194 252.78028 188.77246 251.98926 189.34375 251.41797 C 189.91504 250.84668 190.67676 250.5625 191.62891 250.5625 C 192.52979 250.5625 193.25781 250.83301 193.81445 251.375 C 194.37842 251.90967 194.66016 252.56787 194.66016 253.35156 C 194.66016 254.09863 194.35351 254.89404 193.73828 255.73633 C 193.12305 256.57129 191.93994 257.70703 190.18945 259.14258 C 189.06152 260.06543 188.19629 260.8789 187.5957 261.58203 C 187.00244 262.28515 186.57177 262.99756 186.30078 263.72266 C 186.1323 264.16211 186.05565 264.62158 186.07031 265.09766 L 196.71484 265.09766 L 196.71484 263.19531 L 188.81641 263.19531 C 189.03613 262.83643 189.31347 262.48243 189.65039 262.13086 C 189.9873 261.77197 190.74903 261.09375 191.93555 260.09766 C 193.35645 258.89648 194.37061 257.95215 194.97852 257.26367 C 195.59376 256.57519 196.03321 255.91943 196.29688 255.29688 C 196.56055 254.67432 196.69336 254.04102 196.69336 253.39648 C 196.69336 252.1294 196.24268 251.06787 195.3418 250.21094 C 194.44092 249.354 193.21729 248.92578 191.67188 248.92578 z M 223.52344 249.07422 L 221.96484 257.3457 L 223.82031 257.58789 C 224.11328 257.12646 224.5166 256.75244 225.0293 256.4668 C 225.542 256.17383 226.1167 256.02734 226.75391 256.02734 C 227.77929 256.02734 228.60644 256.35401 229.23633 257.00586 C 229.87353 257.65772 230.19336 258.54785 230.19336 259.67578 C 230.19336 260.86231 229.86231 261.81348 229.20312 262.53125 C 228.54394 263.24902 227.73926 263.60742 226.78711 263.60742 C 225.99609 263.60742 225.31787 263.35498 224.75391 262.84961 C 224.19727 262.33692 223.84326 261.5752 223.68945 260.56445 L 221.61328 260.74023 C 221.74511 262.09521 222.27246 263.18359 223.19531 264.00391 C 224.12549 264.82422 225.32226 265.23438 226.78711 265.23438 C 228.57422 265.23437 229.98486 264.583 231.01758 263.2793 C 231.86719 262.21728 232.29102 260.95752 232.29102 259.5 C 232.29102 257.96924 231.8086 256.71631 230.8418 255.74219 C 229.875 254.76807 228.6875 254.28125 227.28125 254.28125 C 226.21924 254.28125 225.20507 254.61719 224.23828 255.29102 L 225.10547 250.96289 L 231.5332 250.96289 L 231.5332 249.07422 L 223.52344 249.07422 z M 115.51367 249.07812 L 115.51367 250.97852 L 123.40234 250.97852 C 122.39893 252.12109 121.45019 253.52734 120.55664 255.19727 C 119.67041 256.85986 118.98975 258.58838 118.51367 260.38281 C 118.03763 262.17725 117.78958 263.70947 117.76758 264.97656 L 119.79883 264.97656 C 119.90869 263.37256 120.16113 261.89648 120.55664 260.54883 C 121.10595 258.63721 121.8833 256.77588 122.88672 254.9668 C 123.89746 253.15772 124.91601 251.70849 125.94141 250.61719 L 125.94141 249.07812 L 115.51367 249.07812 z M 263.48633 252.04492 L 263.48633 259.30664 L 258.44336 259.30664 L 263.48633 252.04492 z M 85.769531 256.75 C 86.384765 256.75 86.896487 256.99561 87.306641 257.48633 C 87.716801 257.96973 87.921875 258.73584 87.921875 259.7832 C 87.921875 260.80127 87.732422 261.53369 87.351562 261.98047 C 86.970702 262.42725 86.493162 262.65039 85.921875 262.65039 C 85.328608 262.65039 84.80127 262.37793 84.339844 261.83594 C 83.878424 261.28662 83.648438 260.51123 83.648438 259.50781 C 83.648438 258.59961 83.853519 257.91455 84.263672 257.45312 C 84.673832 256.98438 85.176271 256.75 85.769531 256.75 z M 250.74805 284.09961 C 250.40381 284.79541 249.81787 285.51221 248.99023 286.25195 C 248.1626 286.9917 247.1958 287.62256 246.08984 288.14258 L 246.08984 290.05469 C 246.70508 289.82763 247.39697 289.4873 248.16602 289.0332 C 248.94238 288.5791 249.56885 288.12402 250.04492 287.66992 L 250.04492 300.27148 L 252.02344 300.27148 L 252.02344 284.09961 L 250.74805 284.09961 z M 262.34961 284.09961 C 260.95068 284.09961 259.83057 284.49853 258.98828 285.29688 C 258.14599 286.09522 257.72461 287.08008 257.72461 288.25195 C 257.72461 289.02832 257.92285 289.69531 258.31836 290.25195 C 258.71387 290.8086 259.32226 291.23682 260.14258 291.53711 C 259.16113 291.79346 258.40185 292.27783 257.86719 292.98828 C 257.33984 293.69141 257.07617 294.56592 257.07617 295.61328 C 257.07617 297.01953 257.56299 298.19581 258.53711 299.14062 C 259.51123 300.07812 260.79345 300.54688 262.38281 300.54688 C 263.97217 300.54688 265.2544 300.07812 266.22852 299.14062 C 267.20264 298.20312 267.68945 297.04492 267.68945 295.66797 C 267.68945 294.67188 267.43018 293.81543 266.91016 293.09766 C 266.39746 292.37988 265.64502 291.85938 264.65625 291.53711 C 265.45459 291.23682 266.04932 290.81299 266.4375 290.26367 C 266.83301 289.70703 267.0293 289.05371 267.0293 288.30664 C 267.0293 287.13477 266.60107 286.14306 265.74414 285.33008 C 264.88721 284.50976 263.75586 284.09961 262.34961 284.09961 z M 73.673828 284.19531 C 72.223635 284.19531 71.013675 284.56689 70.046875 285.30664 C 69.080075 286.04639 68.505366 287.26563 68.322266 288.96484 L 71.398438 289.27148 C 71.457031 288.3706 71.677734 287.72607 72.058594 287.33789 C 72.439454 286.9497 72.951176 286.75586 73.595703 286.75586 C 74.247563 286.75586 74.75684 286.94287 75.123047 287.31641 C 75.496587 287.68262 75.683594 288.20996 75.683594 288.89844 C 75.683594 289.52099 75.471682 290.1499 75.046875 290.78711 C 74.731935 291.24854 73.877935 292.12744 72.486328 293.42383 C 70.757815 295.02783 69.601558 296.3169 69.015625 297.29102 C 68.429685 298.25782 68.078124 299.28321 67.960938 300.36719 L 78.78125 300.36719 L 78.78125 297.5 L 72.650391 297.5 C 72.811524 297.22168 73.020997 296.9375 73.277344 296.64453 C 73.541017 296.35156 74.160646 295.75683 75.134766 294.86328 C 76.108886 293.96973 76.782717 293.28467 77.15625 292.80859 C 77.720217 292.09082 78.130372 291.40771 78.386719 290.75586 C 78.650392 290.09668 78.78125 289.40283 78.78125 288.67773 C 78.78125 287.40332 78.328122 286.33936 77.419922 285.48242 C 76.511715 284.62549 75.263181 284.19531 73.673828 284.19531 z M 85.966797 284.19531 C 85.080564 284.19531 84.27832 284.36426 83.560547 284.70117 C 82.8501 285.03076 82.293458 285.48828 81.890625 286.07422 C 81.495118 286.65283 81.197753 287.43018 81 288.4043 L 83.845703 288.88672 C 83.92627 288.18359 84.15381 287.64941 84.527344 287.2832 C 84.900877 286.91699 85.35156 286.73438 85.878906 286.73438 C 86.413573 286.73438 86.841796 286.89453 87.164062 287.2168 C 87.486329 287.53906 87.648438 287.97169 87.648438 288.51367 C 87.648437 289.15088 87.427735 289.66455 86.988281 290.05273 C 86.548828 290.43362 85.911132 290.61184 85.076172 290.58984 L 84.736328 293.10547 C 85.285648 292.95166 85.75879 292.875 86.154297 292.875 C 86.754884 292.875 87.262208 293.10254 87.679688 293.55664 C 88.097167 294.01074 88.306641 294.62598 88.306641 295.40234 C 88.306641 296.22266 88.087891 296.87402 87.648438 297.35742 C 87.216304 297.84082 86.680175 298.08203 86.042969 298.08203 C 85.449709 298.08203 84.944824 297.88135 84.527344 297.47852 C 84.109864 297.07568 83.853026 296.49414 83.757812 295.73242 L 80.769531 296.09375 C 80.923338 297.44873 81.47998 298.54834 82.439453 299.39062 C 83.398926 300.22558 84.608886 300.64258 86.066406 300.64258 C 87.604493 300.64258 88.889162 300.14453 89.921875 299.14844 C 90.954588 298.15234 91.470703 296.94678 91.470703 295.5332 C 91.470703 294.55908 91.193359 293.7295 90.636719 293.04102 C 90.087399 292.35254 89.350581 291.90869 88.427734 291.71094 C 89.973141 290.86865 90.746094 289.73975 90.746094 288.32617 C 90.746094 287.33008 90.367675 286.4375 89.613281 285.64648 C 88.697755 284.67969 87.48291 284.19531 85.966797 284.19531 z M 179.97852 284.2207 C 178.44776 284.2207 177.22852 284.61963 176.32031 285.41797 C 175.41211 286.20899 174.88916 287.36279 174.75 288.87891 L 176.78125 289.08789 C 176.78858 288.07714 177.0791 287.28613 177.65039 286.71484 C 178.22168 286.14356 178.98339 285.85742 179.93555 285.85742 C 180.83642 285.85742 181.56445 286.12794 182.12109 286.66992 C 182.68506 287.2046 182.9668 287.86475 182.9668 288.64844 C 182.9668 289.39551 182.66016 290.19092 182.04492 291.0332 C 181.42969 291.86816 180.24658 293.00195 178.49609 294.4375 C 177.36816 295.36035 176.50293 296.17383 175.90234 296.87695 C 175.30908 297.58008 174.87646 298.29443 174.60547 299.01953 C 174.43699 299.45898 174.36033 299.9165 174.375 300.39258 L 185.02148 300.39258 L 185.02148 298.49219 L 177.12305 298.49219 C 177.34277 298.1333 177.62012 297.77734 177.95703 297.42578 C 178.29394 297.06689 179.05567 296.39062 180.24219 295.39453 C 181.66309 294.19336 182.67724 293.24707 183.28516 292.55859 C 183.90039 291.87011 184.33985 291.21631 184.60352 290.59375 C 184.86719 289.9712 185 289.33594 185 288.69141 C 185 287.42431 184.54932 286.36279 183.64844 285.50586 C 182.74756 284.64893 181.52393 284.2207 179.97852 284.2207 z M 192.4043 284.2207 C 191.23242 284.2207 190.2588 284.53613 189.48242 285.16602 C 188.71338 285.7959 188.12988 286.69287 187.73438 287.85742 C 187.34619 289.01465 187.15234 290.54493 187.15234 292.44922 C 187.15234 295.47413 187.68408 297.65772 188.74609 298.99805 C 189.63233 300.11133 190.85156 300.66797 192.4043 300.66797 C 193.5835 300.66797 194.55713 300.35254 195.32617 299.72266 C 196.10254 299.08545 196.68603 298.18848 197.07422 297.03125 C 197.4624 295.8667 197.65625 294.33887 197.65625 292.44922 C 197.65625 290.85254 197.53467 289.58594 197.29297 288.64844 C 197.05128 287.70362 196.71778 286.90577 196.29297 286.25391 C 195.86816 285.59473 195.32959 285.09228 194.67773 284.74805 C 194.02587 284.39648 193.26855 284.2207 192.4043 284.2207 z M 215.30664 284.2207 C 214.96241 284.9165 214.37647 285.63525 213.54883 286.375 C 212.72119 287.11475 211.7544 287.74365 210.64844 288.26367 L 210.64844 290.17578 C 211.26367 289.94873 211.95556 289.6084 212.72461 289.1543 C 213.50098 288.7002 214.12744 288.24512 214.60352 287.79102 L 214.60352 300.39258 L 216.58008 300.39258 L 216.58008 284.2207 L 215.30664 284.2207 z M 226.7207 284.2207 C 225.27051 284.2207 224.0625 284.71875 223.0957 285.71484 C 222.13623 286.71094 221.65625 288.0249 221.65625 289.6582 C 221.65625 291.24024 222.11816 292.51563 223.04102 293.48242 C 223.96387 294.44922 225.09082 294.93164 226.42383 294.93164 C 227.22217 294.93164 227.96338 294.7378 228.64453 294.34961 C 229.333 293.9541 229.87402 293.44238 230.26953 292.8125 C 230.27686 292.98828 230.28125 293.11914 230.28125 293.20703 C 230.28125 294.02734 230.18213 294.83398 229.98438 295.625 C 229.78662 296.41601 229.54101 297.04492 229.24805 297.51367 C 228.95507 297.97509 228.57861 298.34472 228.11719 298.62305 C 227.66309 298.90137 227.13134 299.04102 226.52344 299.04102 C 225.81298 299.04102 225.23144 298.84033 224.77734 298.4375 C 224.32324 298.03467 224.01465 297.38574 223.85352 296.49219 L 221.95312 296.66797 C 222.11426 297.93506 222.59424 298.91992 223.39258 299.62305 C 224.19092 300.31885 225.21875 300.66797 226.47852 300.66797 C 227.66504 300.66797 228.69922 300.34814 229.57812 299.71094 C 230.46435 299.07373 231.12939 298.14746 231.57617 296.93164 C 232.02295 295.70849 232.24805 294.06787 232.24805 292.00977 C 232.24805 290.03223 232.02051 288.52441 231.56641 287.48438 C 231.11963 286.43701 230.45947 285.63037 229.58789 285.06641 C 228.72363 284.50244 227.76806 284.2207 226.7207 284.2207 z M 109.17578 284.23633 C 107.64502 284.23633 106.42578 284.63525 105.51758 285.43359 C 104.60938 286.22461 104.08643 287.37842 103.94727 288.89453 L 105.97852 289.10352 C 105.98584 288.09277 106.27637 287.30176 106.84766 286.73047 C 107.41894 286.15918 108.18066 285.87305 109.13281 285.87305 C 110.03369 285.87305 110.76171 286.14551 111.31836 286.6875 C 111.88232 287.22217 112.16406 287.88037 112.16406 288.66406 C 112.16406 289.41114 111.85742 290.20654 111.24219 291.04883 C 110.62695 291.88379 109.44385 293.01953 107.69336 294.45508 C 106.56543 295.37792 105.7002 296.18945 105.09961 296.89258 C 104.50635 297.5957 104.07568 298.31006 103.80469 299.03516 C 103.63621 299.47461 103.55955 299.93213 103.57422 300.4082 L 114.21875 300.4082 L 114.21875 298.50781 L 106.32031 298.50781 C 106.54004 298.14893 106.81738 297.79492 107.1543 297.44336 C 107.49121 297.08447 108.25293 296.40625 109.43945 295.41016 C 110.86035 294.20898 111.87451 293.26465 112.48242 292.57617 C 113.09766 291.8877 113.53711 291.23193 113.80078 290.60938 C 114.06445 289.98682 114.19727 289.35351 114.19727 288.70898 C 114.19727 287.44189 113.74658 286.37842 112.8457 285.52148 C 111.94482 284.66455 110.72119 284.23633 109.17578 284.23633 z M 121.70117 284.23633 C 120.17041 284.23633 118.95117 284.63525 118.04297 285.43359 C 117.13476 286.22461 116.60986 287.37842 116.4707 288.89453 L 118.50391 289.10352 C 118.51123 288.09277 118.79981 287.30176 119.37109 286.73047 C 119.94239 286.15918 120.7041 285.87305 121.65625 285.87305 C 122.55713 285.87305 123.28711 286.14551 123.84375 286.6875 C 124.40772 287.22217 124.68945 287.88037 124.68945 288.66406 C 124.68945 289.41114 124.38086 290.20654 123.76562 291.04883 C 123.15039 291.88379 121.96728 293.01953 120.2168 294.45508 C 119.08887 295.37792 118.22559 296.18945 117.625 296.89258 C 117.03174 297.5957 116.59913 298.31006 116.32812 299.03516 C 116.15965 299.47461 116.08299 299.93213 116.09766 300.4082 L 126.74414 300.4082 L 126.74414 298.50781 L 118.84375 298.50781 C 119.06348 298.14893 119.34277 297.79492 119.67969 297.44336 C 120.0166 297.08447 120.77832 296.40625 121.96484 295.41016 C 123.38574 294.20898 124.39991 293.26465 125.00781 292.57617 C 125.62305 291.8877 126.0625 291.23193 126.32617 290.60938 C 126.58985 289.98682 126.7207 289.35351 126.7207 288.70898 C 126.7207 287.44189 126.27197 286.37842 125.37109 285.52148 C 124.47021 284.66455 123.24658 284.23633 121.70117 284.23633 z M 146.08203 284.23633 C 144.55127 284.23633 143.33203 284.63525 142.42383 285.43359 C 141.51563 286.22461 140.99072 287.37842 140.85156 288.89453 L 142.88477 289.10352 C 142.89209 288.09278 143.18066 287.30176 143.75195 286.73047 C 144.32324 286.15918 145.08496 285.87305 146.03711 285.87305 C 146.93799 285.87305 147.66797 286.14551 148.22461 286.6875 C 148.78858 287.22217 149.07031 287.88037 149.07031 288.66406 C 149.07031 289.41114 148.76172 290.20655 148.14648 291.04883 C 147.53125 291.88379 146.34815 293.01953 144.59766 294.45508 C 143.46973 295.37793 142.60645 296.18945 142.00586 296.89258 C 141.4126 297.5957 140.97998 298.31006 140.70898 299.03516 C 140.54051 299.47461 140.46385 299.93213 140.47852 300.4082 L 151.125 300.4082 L 151.125 298.50781 L 143.22461 298.50781 C 143.44434 298.14893 143.72363 297.79492 144.06055 297.44336 C 144.39747 297.08447 145.15918 296.40625 146.3457 295.41016 C 147.7666 294.20898 148.78077 293.26465 149.38867 292.57617 C 150.00391 291.8877 150.44336 291.23193 150.70703 290.60938 C 150.9707 289.98682 151.10156 289.35351 151.10156 288.70898 C 151.10156 287.44189 150.65088 286.37842 149.75 285.52148 C 148.84912 284.66455 147.62744 284.23633 146.08203 284.23633 z M 159.42969 284.23633 C 159.08545 284.93213 158.49951 285.65088 157.67188 286.39062 C 156.84424 287.13037 155.87744 287.75928 154.77148 288.2793 L 154.77148 290.19141 C 155.38672 289.96435 156.07862 289.62402 156.84766 289.16992 C 157.62402 288.71582 158.25049 288.26074 158.72656 287.80664 L 158.72656 300.4082 L 160.70508 300.4082 L 160.70508 284.23633 L 159.42969 284.23633 z M 262.37109 285.72461 C 263.11817 285.72461 263.74219 285.97461 264.24023 286.47266 C 264.7456 286.96338 264.99805 287.57177 264.99805 288.29688 C 264.99805 288.99268 264.75244 289.58105 264.26172 290.06445 C 263.77832 290.54053 263.15625 290.7793 262.39453 290.7793 C 261.61084 290.7793 260.97315 290.53809 260.48242 290.05469 C 259.9917 289.57129 259.74609 288.94727 259.74609 288.18555 C 259.74609 287.51172 259.99609 286.93457 260.49414 286.45117 C 260.99219 285.96778 261.6167 285.72461 262.37109 285.72461 z M 192.38281 285.85742 C 193.30566 285.85742 194.07422 286.29444 194.68945 287.16602 C 195.31201 288.0376 195.62305 289.79785 195.62305 292.44922 C 195.62305 295.08594 195.31201 296.84375 194.68945 297.72266 C 194.07422 298.60156 193.3125 299.04102 192.4043 299.04102 C 191.49609 299.04102 190.72998 298.60595 190.10742 297.73438 C 189.49218 296.85547 189.18555 295.09327 189.18555 292.44922 C 189.18555 289.80518 189.52588 287.99317 190.20703 287.01172 C 190.74902 286.24268 191.47461 285.85742 192.38281 285.85742 z M 226.96289 285.85742 C 227.8125 285.85742 228.53809 286.19092 229.13867 286.85742 C 229.74659 287.52392 230.05078 288.42529 230.05078 289.56055 C 230.05078 290.69581 229.75342 291.58594 229.16016 292.23047 C 228.57422 292.86768 227.82373 293.18555 226.9082 293.18555 C 226 293.18555 225.23389 292.86768 224.61133 292.23047 C 223.99609 291.58594 223.68945 290.75 223.68945 289.72461 C 223.68945 288.58203 224.01416 287.65137 224.66602 286.93359 C 225.31787 286.21582 226.08398 285.85742 226.96289 285.85742 z M 262.33984 292.39453 C 263.29199 292.39453 264.083 292.70556 264.71289 293.32812 C 265.3501 293.95068 265.66797 294.7373 265.66797 295.68945 C 265.66797 296.62695 265.35937 297.39991 264.74414 298.00781 C 264.12891 298.61573 263.34912 298.91992 262.4043 298.91992 C 261.79638 298.91992 261.22851 298.77783 260.70117 298.49219 C 260.17383 298.19922 259.7749 297.78907 259.50391 297.26172 C 259.24023 296.73438 259.10938 296.18897 259.10938 295.625 C 259.10938 294.70215 259.41357 293.93164 260.02148 293.31641 C 260.63672 292.70117 261.40967 292.39453 262.33984 292.39453 z M 183.65625 319.52734 C 182.38184 319.52734 181.31592 319.89258 180.45898 320.625 C 179.60205 321.3501 179.05225 322.37549 178.81055 323.70117 L 180.78906 324.05273 C 180.93555 323.08593 181.26465 322.3623 181.77734 321.87891 C 182.29004 321.39551 182.93017 321.15234 183.69922 321.15234 C 184.47559 321.15234 185.11084 321.39111 185.60156 321.86719 C 186.09228 322.34326 186.33594 322.94482 186.33594 323.66992 C 186.33594 324.58545 186 325.26172 185.32617 325.70117 C 184.65235 326.14063 183.89502 326.36133 183.05273 326.36133 C 182.97217 326.36133 182.86426 326.35256 182.73242 326.33789 L 182.51367 328.07422 C 183.07031 327.92773 183.53466 327.85547 183.9082 327.85547 C 184.82373 327.85547 185.57861 328.15088 186.17188 328.74414 C 186.76514 329.33008 187.0625 330.07813 187.0625 330.98633 C 187.0625 331.93847 186.74023 332.73633 186.0957 333.38086 C 185.45849 334.02539 184.67431 334.34766 183.74414 334.34766 C 182.96045 334.34766 182.29345 334.10205 181.74414 333.61133 C 181.20215 333.11328 180.81885 332.30419 180.5918 331.18359 L 178.61328 331.44727 C 178.74511 332.7876 179.27686 333.87842 180.20703 334.7207 C 181.14453 335.56299 182.31885 335.98438 183.73242 335.98438 C 185.29981 335.98438 186.59766 335.49756 187.62305 334.52344 C 188.64844 333.54199 189.16016 332.34765 189.16016 330.94141 C 189.16016 329.90137 188.89649 329.03809 188.36914 328.34961 C 187.8418 327.65381 187.10254 327.19629 186.15039 326.97656 C 186.88281 326.63965 187.43506 326.18457 187.80859 325.61328 C 188.18213 325.04199 188.36914 324.40869 188.36914 323.71289 C 188.36914 322.98047 188.1709 322.28857 187.77539 321.63672 C 187.38721 320.98486 186.82373 320.47119 186.08398 320.09766 C 185.34424 319.7168 184.53516 319.52734 183.65625 319.52734 z M 76.978516 319.5332 C 75.418456 319.5332 74.201658 320.08105 73.330078 321.17969 C 72.275391 322.51269 71.748047 324.69629 71.748047 327.72852 C 71.748047 330.81934 72.228027 332.96924 73.1875 334.17773 C 74.146973 335.37891 75.411136 335.97852 76.978516 335.97852 C 78.538576 335.97852 79.75342 335.43066 80.625 334.33203 C 81.679687 332.99902 82.207031 330.80859 82.207031 327.76172 C 82.207031 324.70752 81.684079 322.52148 80.636719 321.20312 C 79.757812 320.08985 78.538576 319.5332 76.978516 319.5332 z M 262.05273 319.56641 L 262.05273 322.25781 L 262.55859 325.26758 L 263.77734 325.26758 L 264.30469 322.25781 L 264.30469 319.56641 L 262.05273 319.56641 z M 191.18164 319.59375 L 191.18164 322.28516 L 191.6875 325.29492 L 192.90625 325.29492 L 193.43359 322.28516 L 193.43359 319.59375 L 191.18164 319.59375 z M 84.337891 319.59766 L 84.337891 322.32227 L 84.921875 325.32227 L 87.195312 325.32227 L 87.701172 322.32227 L 87.701172 319.59766 L 84.337891 319.59766 z M 113.1582 319.66992 C 112.81396 320.36572 112.22803 321.08447 111.40039 321.82422 C 110.57276 322.56397 109.60596 323.19287 108.5 323.71289 L 108.5 325.625 C 109.11524 325.39795 109.80713 325.05762 110.57617 324.60352 C 111.35254 324.14942 111.979 323.69433 112.45508 323.24023 L 112.45508 335.8418 L 114.43164 335.8418 L 114.43164 319.66992 L 113.1582 319.66992 z M 148.65234 319.66992 C 147.12158 319.66992 145.90235 320.06885 144.99414 320.86719 C 144.08594 321.6582 143.56104 322.81201 143.42188 324.32812 L 145.45508 324.53711 C 145.4624 323.52637 145.75097 322.73536 146.32227 322.16406 C 146.89355 321.59278 147.65528 321.30664 148.60742 321.30664 C 149.5083 321.30664 150.23828 321.57715 150.79492 322.11914 C 151.35889 322.65381 151.64062 323.31396 151.64062 324.09766 C 151.64062 324.84472 151.33203 325.64014 150.7168 326.48242 C 150.10156 327.31738 148.92042 328.45117 147.16992 329.88672 C 146.042 330.80957 145.17676 331.62305 144.57617 332.32617 C 143.98291 333.02929 143.5503 333.74365 143.2793 334.46875 C 143.11082 334.9082 143.03416 335.36572 143.04883 335.8418 L 153.69531 335.8418 L 153.69531 333.94141 L 145.79492 333.94141 C 146.01465 333.58252 146.29395 333.22657 146.63086 332.875 C 146.96778 332.51611 147.7295 331.83984 148.91602 330.84375 C 150.33692 329.64258 151.35108 328.69629 151.95898 328.00781 C 152.57422 327.31934 153.01368 326.66553 153.27734 326.04297 C 153.54102 325.42041 153.67383 324.78516 153.67383 324.14062 C 153.67383 322.87354 153.22315 321.81201 152.32227 320.95508 C 151.42139 320.09814 150.19775 319.66992 148.65234 319.66992 z M 221.06641 319.70312 L 213.7168 330.14062 L 213.7168 331.95312 L 220.70508 331.95312 L 220.70508 335.80859 L 222.68164 335.80859 L 222.68164 331.95312 L 224.85742 331.95312 L 224.85742 330.14062 L 222.68164 330.14062 L 222.68164 319.70312 L 221.06641 319.70312 z M 226.94531 319.70312 L 226.94531 322.39453 L 227.44922 325.4043 L 228.66992 325.4043 L 229.19727 322.39453 L 229.19727 319.70312 L 226.94531 319.70312 z M 119.5625 319.73633 L 119.5625 322.42773 L 120.06836 325.4375 L 121.28711 325.4375 L 121.81445 322.42773 L 121.81445 319.73633 L 119.5625 319.73633 z M 155.88086 319.73633 L 155.88086 322.42773 L 156.38672 325.4375 L 157.60547 325.4375 L 158.13281 322.42773 L 158.13281 319.73633 L 155.88086 319.73633 z M 251.38477 319.78516 L 249.82617 328.05859 L 251.68164 328.29883 C 251.97461 327.8374 252.37793 327.46533 252.89062 327.17969 C 253.40332 326.88671 253.97803 326.74023 254.61523 326.74023 C 255.64063 326.74023 256.46778 327.06494 257.09766 327.7168 C 257.73486 328.36865 258.05469 329.25879 258.05469 330.38672 C 258.05469 331.57324 257.72559 332.52637 257.06641 333.24414 C 256.40723 333.96191 255.60059 334.32031 254.64844 334.32031 C 253.85742 334.32031 253.1792 334.06787 252.61523 333.5625 C 252.05859 333.04981 251.70459 332.28808 251.55078 331.27734 L 249.47461 331.45312 C 249.60645 332.80811 250.13379 333.89453 251.05664 334.71484 C 251.98682 335.53516 253.1836 335.94531 254.64844 335.94531 C 256.43555 335.94531 257.84619 335.29395 258.87891 333.99023 C 259.72851 332.92822 260.15234 331.66846 260.15234 330.21094 C 260.15234 328.68018 259.66992 327.42724 258.70312 326.45312 C 257.73632 325.479 256.54882 324.99219 255.14258 324.99219 C 254.08056 324.99219 253.06641 325.33008 252.09961 326.00391 L 252.9668 321.67578 L 259.39453 321.67578 L 259.39453 319.78516 L 251.38477 319.78516 z M 76.978516 322.0918 C 77.352049 322.0918 77.68115 322.21338 77.966797 322.45508 C 78.259764 322.68945 78.500973 323.16259 78.691406 323.87305 C 78.881833 324.57617 78.976562 325.87207 78.976562 327.76172 C 78.976562 329.65137 78.870603 330.99219 78.658203 331.7832 C 78.49707 332.39844 78.271482 332.82666 77.978516 333.06836 C 77.685542 333.30274 77.352049 333.41992 76.978516 333.41992 C 76.604982 333.41992 76.271482 333.30274 75.978516 333.06836 C 75.692869 332.83399 75.454105 332.36524 75.263672 331.66211 C 75.073245 330.95166 74.978516 329.65137 74.978516 327.76172 C 74.978516 325.87207 75.084475 324.52686 75.296875 323.72852 C 75.458008 323.11328 75.685542 322.68945 75.978516 322.45508 C 76.271482 322.21338 76.604982 322.0918 76.978516 322.0918 z M 220.70508 322.87891 L 220.70508 330.14062 L 215.66211 330.14062 L 220.70508 322.87891 z"/>

    </g>

</svg>